<?xml version="1.0" encoding="UTF-8" standalone="no"?> <!-- Created with Vectornator for iOS (http://vectornator.io/) --><!DOCTYPE svg PUBLIC "-//W3C//DTD SVG 1.1//EN" "http://www.w3.org/Graphics/SVG/1.1/DTD/svg11.dtd">
<svg xmlns="http://www.w3.org/2000/svg" viewBox="0 0 1366 1024" height="100%" xmlns:xlink="http://www.w3.org/1999/xlink" version="1.1" xmlns:vectornator="http://vectornator.io" style="fill-rule:nonzero;clip-rule:evenodd;stroke-linecap:round;stroke-linejoin:round;" xml:space="preserve" width="100%">
<metadata>
<vectornator:setting key="WDIsolateActiveLayer" value="false"/>
<vectornator:setting key="WDGuidesVisible" value="true"/>
<vectornator:setting key="WDDisplayWhiteBackground" value="false"/>
<vectornator:setting value="true" key="VNDimensionsVisible"/>
<vectornator:setting value="false" key="WDSnapToEdges"/>
<vectornator:setting value="false" key="WDCMYKEnabledKey"/>
<vectornator:setting value="false" key="WDOutlineMode"/>
<vectornator:setting key="IsTimeLapseWatermarkDisabled" value="false"/>
<vectornator:setting value="false" key="WDDynamicGuides"/>
<vectornator:setting key="UndoHistoryDisabled" value="false"/>
<vectornator:setting value="false" key="VNPencilOnly"/>
<vectornator:setting value="true" key="VNSnapToGuides"/>
<vectornator:setting key="WDUnits" value="Points"/>
<vectornator:setting key="WDSnapToPoints" value="false"/>
<vectornator:setting key="WDRulersVisible" value="true"/>
<vectornator:setting key="WDSnapToGrid" value="false"/>
</metadata>
<defs/>
<g vectornator:layerName="Layer 1" id="Layer 1">
<g opacity="1">
<path opacity="1" d="M245.398+456.998C249.902+447.989+248.631+438.497+248.897+428.716C249.263+415.249+249.396+401.542+250.896+388.154C252.209+376.426+253.545+364.248+257.393+353.027C259.76+346.124+263.145+339.675+265.589+332.797C275.037+306.196+288.944+282.393+310.866+264.053C319.762+256.612+330.011+252.59+340.452+247.849C348.566+244.164+356.35+239.73+364.74+236.677C383.163+229.973+403.351+226.783+422.512+222.686C448.992+217.025+476.272+215.207+503.073+211.716C513.832+210.314+524.706+208.068+535.557+207.589C549.548+206.972+563.481+208.202+577.437+208.797C586.55+209.185+595.606+208.76+604.723+209.401C614.393+210.08+623.955+211.753+633.609+212.521C663.988+214.936+694.266+216.421+723.865+224.398C733.014+226.863+741.54+230.647+750.352+234.06C766.08+240.151+782.496+248.052+794.93+259.826C801.548+266.092+809.225+277.626+813.621+285.794C816.27+290.715+817.854+296.216+820.918+300.891C829.788+314.428+836.904+328.145+838.609+344.673C840.425+362.271+839.661+380.062+839.409+397.716C839.318+404.033+840.45+412.72+836.01+418.047C829.967+425.298+813.644+429.899+805.026+432.238C779.19+439.25+752.423+440.499+725.764+441.196C714.096+441.501+702.357+442.277+690.681+441.8C678.895+441.319+667.373+438.52+655.498+439.586C646.548+440.389+637.763+442.847+628.811+443.712C613.734+445.17+598.357+444.185+583.334+446.631C574.579+448.057+565.882+451.109+557.046+451.966C546.133+453.024+535.28+451.662+524.362+452.167C500.101+453.289+475.613+453.21+451.398+455.086C431.687+456.613+411.921+457.884+392.227+459.514C383.908+460.203+375.934+462.961+367.639+463.742C360.211+464.44+352.326+464.804+344.85+465.352C332.249+466.276+319.719+464.121+307.168+464.346C301.9+464.44+296.706+465.614+291.476+466.258C279.9+467.684+267.139+468.639+255.494+467.264C252.489+466.91+244.895+465.861+243.399+462.031C242.743+460.349+244.591+458.613+245.398+456.998Z" fill="#cc9f63"/>
<path opacity="1" fill="#000000" d="M535.312+202.531C524.692+203.052+514.265+205.07+503.75+206.5C479.152+209.845+454.343+211.551+429.906+216.062C421.433+217.627+413.008+219.48+404.562+221.188C391.372+223.855+378.144+226.683+365.406+231.094C356.364+234.225+348.004+238.808+339.344+242.812C332.055+246.183+324.581+249.205+317.625+253.25C313.02+255.928+308.831+259.068+304.844+262.594C290.5+275.277+279.091+290.968+270.562+308.062C267.907+313.385+265.512+318.836+263.344+324.375C262.049+327.683+260.934+331.041+259.625+334.344C256.973+341.035+253.757+347.47+251.656+354.375C248.813+363.721+247.504+373.475+246.406+383.156C245.85+388.063+245.335+392.979+245+397.906C244.497+405.309+244.285+412.74+244.094+420.156C244+423.813+243.873+427.467+243.844+431.125C243.799+436.665+243.761+431.845+240.938+454.219C240.878+454.314+240.773+454.368+240.719+454.469C239.924+455.736+240.167+455.368+239.938+455.719C239.354+456.61+238.8+457.524+238.438+458.531C238.16+459.301+238.004+460.119+237.969+460.938C237.723+466.611+243.305+469.875+248.031+471.25C250.77+472.047+253.577+472.4+256.406+472.688C259.536+473.006+262.699+473.171+265.844+473.219C276.432+473.379+287.044+472.364+297.5+470.75C300.355+470.309+303.235+469.831+306.125+469.688C310.037+469.493+313.967+469.744+317.875+469.938C326.432+470.362+334.986+471.215+343.562+470.75C348.553+470.479+353.544+470.114+358.531+469.781C363.22+469.468+367.947+469.166+372.594+468.438C378.696+467.481+384.641+465.738+390.781+465C395.883+464.387+401.065+464.106+406.188+463.719C414.813+463.067+423.435+462.47+432.062+461.844C442.647+461.076+453.216+460.15+463.812+459.562C475.925+458.891+488.062+458.62+500.188+458.281C508.306+458.054+516.415+457.707+524.531+457.438C535.048+457.088+545.591+458.186+556.094+457.344C561.283+456.928+566.381+455.851+571.438+454.656C575.634+453.664+579.821+452.47+584.094+451.844C588.954+451.132+593.846+450.651+598.75+450.375C608.286+449.838+617.853+449.929+627.375+449.125C632.672+448.678+637.871+447.775+643.094+446.812C648.237+445.865+653.417+444.862+658.656+444.656C668.794+444.257+678.815+446.408+688.906+446.969C700.258+447.599+711.651+446.889+723+446.531C735.164+446.148+747.331+445.82+759.469+444.875C775.684+443.613+791.83+441.278+807.531+436.969C814.517+435.051+821.504+432.926+828.062+429.812C831.987+427.949+835.879+425.727+838.938+422.594C843.147+418.282+844.442+412.469+844.656+406.625C844.764+403.676+844.589+400.73+844.625+397.781C844.784+384.796+845.215+371.828+844.781+358.844C844.545+351.777+844.13+344.583+842.812+337.625C840.869+327.357+836.828+317.625+831.688+308.562C830.341+306.189+828.946+303.845+827.5+301.531C826.351+299.693+825.07+297.937+824.031+296.031C821.807+291.952+820.366+287.483+818.188+283.375C815.801+278.875+813.076+274.536+810.188+270.344C806.946+265.64+803.461+261.011+799.406+256.969C796.152+253.724+792.539+250.807+788.812+248.125C777.604+240.057+765.046+234.327+752.25+229.281C745.62+226.667+739.034+223.881+732.281+221.594C728.707+220.384+725.065+219.357+721.406+218.438C692.793+211.249+663.306+209.87+634.031+207.438C624.349+206.633+614.759+204.951+605.062+204.312C594.789+203.636+584.47+204.058+574.188+203.562C561.246+202.939+548.275+201.895+535.312+202.531ZM535.812+212.656C548.444+212.044+561.078+213.102+573.688+213.719C583.91+214.218+594.163+213.82+604.375+214.5C614.011+215.141+623.565+216.787+633.188+217.594C661.896+220.001+690.849+221.338+718.906+228.406C722.298+229.261+725.656+230.22+728.969+231.344C735.56+233.581+741.998+236.287+748.469+238.844C759.824+243.33+771.045+248.345+781.125+255.312C785.011+257.999+788.777+260.939+792.125+264.281C795.728+267.879+798.776+272.035+801.656+276.219C804.549+280.422+807.346+284.771+809.625+289.344C811.526+293.158+812.897+297.22+814.938+300.969C816.074+303.057+817.462+305.017+818.719+307.031C820.086+309.223+821.414+311.44+822.688+313.688C826.966+321.236+830.371+329.26+832.25+337.75C833.877+345.103+834.161+352.779+834.406+360.281C834.789+371.992+834.412+383.727+834.219+395.438C834.15+399.591+834.405+403.761+834.125+407.906C833.946+410.55+833.382+413.33+831.469+415.281C828.615+418.191+824.638+420.012+820.938+421.562C814.847+424.114+808.472+425.922+802.094+427.594C776.645+434.264+750.277+435.189+724.125+436C712.601+436.358+701.027+437.118+689.5+436.469C679.062+435.881+668.743+433.715+658.25+434.125C647.528+434.544+637.142+437.731+626.469+438.625C617.044+439.414+607.594+439.316+598.156+439.844C592.937+440.136+587.734+440.644+582.562+441.406C573.37+442.761+564.551+446.078+555.25+446.812C546.278+447.521+537.321+446.582+528.344+446.781C520.384+446.958+512.428+447.368+504.469+447.594C487.664+448.07+470.872+448.492+454.094+449.594C441.146+450.444+428.191+451.496+415.25+452.438C409.484+452.857+403.731+453.289+397.969+453.75C395.157+453.975+392.333+454.133+389.531+454.469C383.26+455.221+377.168+456.993+370.938+457.969C364.716+458.943+358.369+459.163+352.094+459.562C348.569+459.787+345.029+460.094+341.5+460.219C338.491+460.325+335.476+460.278+332.469+460.156C325.085+459.857+317.736+459.125+310.344+459.062C308.757+459.049+307.179+459.017+305.594+459.094C302.776+459.23+299.973+459.635+297.188+460.062C285.929+461.791+274.498+462.983+263.094+462.531C259.552+462.391+255.946+462.157+252.469+461.406C251.505+461.198+250.545+460.951+249.625+460.594C249.547+460.564+249.533+460.526+249.469+460.5C249.694+460.123+249.464+460.501+250.062+459.531C250.434+458.848+250.634+458.135+250.688+457.406C250.884+456.976+251.328+456.012+251.594+455.25C252.344+453.095+252.864+450.878+253.219+448.625C254.251+442.08+253.795+435.407+253.938+428.812C254.204+416.535+254.388+404.232+255.562+392C256.136+386.029+256.828+380.057+257.719+374.125C258.569+368.461+259.612+362.8+261.281+357.312C263.661+349.49+267.476+342.185+270.312+334.531C273.473+326.004+276.893+317.625+281.125+309.562C289.412+293.776+300.365+279.353+314.094+267.906C323.082+260.411+334.159+256.382+344.625+251.469C352.609+247.721+360.329+243.517+368.688+240.625C381.393+236.229+394.627+233.499+407.781+230.844C416.856+229.012+425.912+227+435.031+225.406C458.705+221.27+482.689+219.719+506.469+216.375C516.229+215.002+525.949+213.134+535.812+212.656Z"/>
</g>
<g opacity="1">
<path fill="#35af48" d="M259.891+471.391C256.393+480.315+252.174+488.989+249.396+498.164C248.57+500.894+248.366+503.99+249.197+506.719C249.86+508.899+252.128+510.208+253.594+511.953" opacity="1"/>
<path fill="#000000" opacity="1" d="M259.781+466.375C257.823+466.416+255.99+467.597+255.219+469.531C251.914+477.789+248.054+485.823+245.188+494.25C244.716+495.637+244.222+497.035+243.906+498.469C243.13+501.989+243.081+506.02+244.562+509.375C245.696+511.943+247.872+513.556+249.719+515.562C251.718+517.707+255.074+517.843+257.219+515.844C259.364+513.844+259.468+510.489+257.469+508.344C256.6+507.421+255.699+506.56+254.781+505.688C254.607+505.522+254.417+505.192+254.219+505.062C254.094+504.981+253.945+503.479+253.938+503.094C253.894+500.741+254.773+498.587+255.469+496.375C257.952+488.48+261.511+480.933+264.562+473.25C265.591+470.671+264.329+467.747+261.75+466.719C261.105+466.462+260.434+466.361+259.781+466.375Z"/>
</g>
<g opacity="1">
<path fill="#35af48" d="M254.094+508.48C256.891+511.317+261.609+511.565+265.589+511.751C268.65+511.895+275.755+507.589+277.983+505.712C279.576+504.37+280.836+502.674+282.18+501.083C283.503+499.518+284.34+495.022+285.979+496.251C288.219+497.932+286.333+501.858+286.878+504.605C287.337+506.914+287.985+509.214+288.977+511.349C293.701+521.508+305.181+523.521+315.464+521.615C324.427+519.954+329.32+507.28+331.856+499.674C332.577+497.513+331.304+493.778+333.456+493.031C335.423+492.347+336.015+496.374+337.653+497.66C339.392+499.026+341.359+500.165+343.451+500.881C348.292+502.54+353.426+503.664+358.543+503.699C366.019+503.752+373.461+500.926+377.834+494.54C379.118+492.666+378.061+488.153+380.333+488.199C382.623+488.247+381.44+492.748+382.731+494.641C384.144+496.712+386.06+498.517+388.229+499.774C393.753+502.976+398.45+502.987+404.521+503.297C416.661+503.916+429.281+502.018+439.804+495.446C443.856+492.915+447.827+489.772+450.298+485.683C451.397+483.866+449.874+479.544+451.998+479.544C454.554+479.544+455.03+483.662+456.595+485.683C457.862+487.319+459.101+488.984+460.494+490.514C462.037+492.21+463.311+494.381+465.391+495.346C468.576+496.822+472.204+497.114+475.686+497.56C482.033+498.372+488.487+497.496+494.877+497.157C503.27+496.712+512.079+496.399+519.865+492.729C522.864+491.315+525.6+489.373+528.261+487.394C529.949+486.138+530.879+483.783+532.858+483.066C534.989+482.295+537.621+482.268+539.655+483.268C542.117+484.477+543.023+487.757+545.352+489.206C553.318+494.162+563.603+494.385+572.639+494.238C579.761+494.123+599.502+493.771+604.723+487.898C606.46+485.944+605.196+481.324+607.722+480.651C610.46+479.921+612.46+483.768+614.918+485.18C617.429+486.622+619.902+488.194+622.614+489.206C630.576+492.175+640.261+493.196+648.702+493.534C661.137+494.031+671.288+489.406+681.886+483.268C683.962+482.065+685.937+480.674+687.783+479.141C689.747+477.51+690.727+473.845+693.28+473.807C696.391+473.76+698.428+477.307+701.076+478.94C708.102+483.271+710.663+485.038+718.668+486.891C728.757+489.226+748.232+488.446+757.149+483.268C759.847+481.7+762.285+479.428+763.846+476.725C764.927+474.852+762.506+469.957+764.645+470.284C768.083+470.81+769.141+475.624+771.742+477.933C779.033+484.408+790.584+484.493+799.728+483.972C801.949+483.846+804.389+484.061+806.325+482.966C808.938+481.488+810.695+478.839+812.722+476.625C820.821+467.776+820.511+457.946+820.718+446.631C820.761+444.25+820.734+441.867+820.718+439.485C820.701+437.036+822.303+433.915+820.618+432.138C818.657+430.07+815.057+430.82+812.222+430.527C803.981+429.676+795.285+431.21+787.034+431.635C779.613+432.016+772.623+434.049+765.245+434.755C742.975+436.884+721.084+441.792+698.677+443.008C661.089+445.048+623.259+445.035+585.732+448.242C553.748+450.974+521.949+456.617+489.979+459.615C460.267+462.402+430.525+459.6+400.823+461.225C385.764+462.05+370.454+463.973+355.445+465.453C347.859+466.201+340.131+466.364+332.556+467.264C325.019+468.16+317.702+470.47+310.067+470.686C306.089+470.799+300.921+469.88+296.973+469.579C288.69+468.947+280.162+469.291+271.886+469.881C266.796+470.244+263.609+469.668+259.492+473.404C255.381+477.134+256.177+480.479+254.694+485.381C253.073+490.737+251.08+491.86+251.695+497.66C252.085+501.334+251.501+505.85+254.094+508.48Z" opacity="1"/>
<path opacity="1" d="M804.781+425.125C803.295+425.166+801.795+425.239+800.312+425.344C798.513+425.471+796.734+425.618+794.938+425.781C790.24+426.207+785.484+426.38+780.812+427.031C776.579+427.621+772.388+428.556+768.156+429.156C765.141+429.584+762.119+429.811+759.094+430.156C753.486+430.797+747.896+431.588+742.312+432.406C731.34+434.013+720.384+435.85+709.344+436.938C705.693+437.297+702.005+437.543+698.344+437.781C693.687+438.084+689.005+438.24+684.344+438.438C674.945+438.837+665.558+439.162+656.156+439.469C632.52+440.241+608.855+441.037+585.281+443C561.512+444.98+537.94+448.619+514.281+451.562C503.628+452.888+492.935+454.245+482.219+454.938C457.531+456.533+432.768+454.806+408.062+455.625C390.271+456.215+372.639+458.463+354.938+460.188C349.896+460.678+344.831+460.908+339.781+461.281C335.814+461.574+331.831+461.931+327.906+462.594C321.866+463.613+315.951+465.066+309.812+465.375C307.546+465.489+305.213+465.135+302.969+464.875C300.379+464.575+297.792+464.306+295.188+464.156C287.645+463.722+280.093+464.015+272.562+464.531C267.667+464.867+262.996+464.643+258.656+467.375C255.335+469.466+252.649+472.544+251.375+476.281C250.531+478.755+250.319+481.401+249.594+483.906C248.793+486.673+247.264+489.166+246.656+492C246.17+494.269+246.917+495.135+249.281+507.469C249.011+508.786+249.243+510.137+250.031+511.281C250.111+511.73+250.104+511.589+250.188+512.062C250.855+512.792+251.68+513.201+252.562+513.469C252.814+513.678+253.641+514.385+254.344+514.719C257.105+516.029+260.198+516.449+263.219+516.656C264.24+516.726+265.288+516.842+266.312+516.781C269.666+516.581+272.92+514.817+275.781+513.188C278.055+511.892+280.357+510.451+282.25+508.625C282.373+508.506+282.474+508.371+282.594+508.25C282.709+508.666+282.781+509.09+282.906+509.5C285.152+516.87+289.858+522.455+297.156+525.281C299.513+526.194+301.993+526.771+304.5+527.062C307.474+527.409+310.498+527.346+313.469+527C316.368+526.662+319.112+526.067+321.656+524.594C324.489+522.954+326.798+520.563+328.719+517.938C330.136+516+331.369+513.897+332.438+511.75C333.893+508.826+335.012+505.757+336.062+502.656C336.31+502.824+336.527+503.026+336.781+503.188C341.093+505.916+346.353+507.261+351.344+508.094C361.829+509.843+373+507.97+380.25+499.625C380.929+500.372+381.657+501.125+382.375+501.75C389.391+507.857+398.633+508.305+407.5+508.438C409.669+508.47+411.835+508.418+414+508.281C416.734+508.108+419.459+507.793+422.156+507.312C425.427+506.73+428.645+505.91+431.781+504.812C435.512+503.507+439.106+501.827+442.469+499.75C446.387+497.331+450.103+494.409+452.938+490.75C453.14+490.488+453.333+490.208+453.531+489.938C454.667+491.402+455.824+492.845+457.031+494.25C458.035+495.419+458.923+496.67+460.062+497.719C463.182+500.592+467.392+501.537+471.469+502.125C473.84+502.467+476.231+502.757+478.625+502.875C482.027+503.043+485.418+502.86+488.812+502.625C499.481+501.886+510.919+502.129+520.906+497.812C524.653+496.193+528.079+493.91+531.312+491.438C532.36+490.636+533.206+489.675+534.031+488.656C534.172+488.483+534.751+487.759+534.906+487.75C535.234+487.721+535.571+487.576+535.906+487.562C537.467+487.499+537.505+487.844+538.438+489.125C538.753+489.559+539.07+490.019+539.406+490.438C539.838+490.975+540.254+491.522+540.75+492C542.961+494.13+546.021+495.468+548.875+496.5C555.364+498.847+562.343+499.331+569.188+499.344C573.36+499.352+577.552+499.271+581.719+499.031C586.784+498.74+591.863+498.22+596.812+497.062C599.728+496.381+602.699+495.459+605.281+493.906C607.613+492.504+609.471+490.599+610.281+487.969C610.621+488.287+610.935+488.631+611.312+488.906C612.441+489.73+613.694+490.375+614.906+491.062C615.831+491.587+616.766+492.122+617.719+492.594C621.238+494.335+625.025+495.457+628.844+496.312C634.575+497.597+640.422+498.216+646.281+498.531C650.356+498.751+654.399+498.708+658.438+498.062C666.723+496.739+674.431+493.295+681.719+489.25C685.132+487.355+688.668+485.349+691.531+482.656C692.388+481.851+693.09+480.905+693.75+479.938C693.827+479.824+693.877+479.746+693.938+479.656C694.794+480.393+695.598+481.175+696.469+481.906C697.338+482.637+698.287+483.248+699.25+483.844C702.335+485.752+705.41+487.715+708.75+489.156C711.792+490.469+715.012+491.379+718.25+492.062C722.464+492.953+726.795+493.246+731.094+493.281C735.558+493.318+740.051+493.054+744.469+492.406C749.701+491.639+755.133+490.413+759.75+487.719C762.642+486.031+765.227+483.785+767.188+481.062C767.277+480.939+767.318+480.782+767.406+480.656C769.413+482.87+771.936+484.628+774.625+485.875C781.754+489.18+789.865+489.55+797.594+489.25C798.733+489.206+799.891+489.13+801.031+489.094C802.431+489.05+803.838+489.057+805.219+488.781C810.495+487.729+813.302+483.823+816.625+480.031C819.117+477.188+821.189+474.123+822.656+470.625C825.273+464.386+825.706+457.587+825.844+450.906C825.898+448.284+825.944+445.654+825.938+443.031C825.934+441.794+825.799+440.514+825.906+439.281C826.092+437.144+826.771+435.315+826.5+433.094C826.035+429.288+822.955+426.595+819.344+425.781C817.312+425.324+815.275+425.485+813.219+425.375C810.389+425.223+807.621+425.047+804.781+425.125ZM807+435.469C809.201+435.47+811.397+435.767+813.594+435.812C814.382+435.829+815.169+435.891+815.969+435.938C815.87+436.447+815.76+436.954+815.688+437.469C815.427+439.322+815.525+441.197+815.531+443.062C815.541+446.048+815.515+449.047+815.438+452.031C815.355+455.22+815.199+458.423+814.594+461.562C813.99+464.695+812.883+467.72+811.094+470.375C810.119+471.822+808.946+473.056+807.812+474.375C806.771+475.587+805.44+477.559+803.969+478.375C803.03+478.896+801.713+478.717+800.688+478.75C799.523+478.788+798.352+478.86+797.188+478.906C790.699+479.163+783.05+479.106+777.312+475.656C776.496+475.166+775.603+474.599+774.969+473.875C774.127+472.914+773.535+471.723+772.844+470.656C771.48+468.55+769.737+466.611+767.344+465.688C766.796+465.476+766.024+465.258+765.438+465.188C764.421+465.065+763.527+465.05+762.531+465.406C761.967+465.608+761.419+465.894+760.938+466.25C760.475+466.592+760.097+467.042+759.75+467.5C758.659+468.937+758.478+470.771+758.625+472.5C758.689+473.254+758.849+473.999+758.938+474.75C758.938+474.753+758.936+474.797+758.938+474.812C758.787+475.033+758.64+475.253+758.469+475.469C757.879+476.213+757.204+476.9+756.469+477.5C754.306+479.265+751.7+480.241+749.031+480.969C744.332+482.251+739.421+482.806+734.562+482.969C730.229+483.114+725.812+482.959+721.531+482.219C718.57+481.706+715.573+480.914+712.812+479.719C710.762+478.831+708.841+477.693+706.938+476.531C705.789+475.831+704.55+475.175+703.469+474.375C702.342+473.541+701.415+472.464+700.344+471.562C698.329+469.867+695.882+468.626+693.188+468.688C692.535+468.702+692.008+468.774+691.375+468.938C689.158+469.511+687.476+471.069+686.156+472.875C685.692+473.51+685.087+474.737+684.531+475.188C683.701+475.86+682.844+476.511+681.969+477.125C679.522+478.841+676.86+480.266+674.219+481.656C668.745+484.538+662.983+486.982+656.844+487.969C651.78+488.782+646.643+488.414+641.562+487.938C638.042+487.608+634.515+487.116+631.062+486.344C628.039+485.668+625.007+484.846+622.219+483.469C621.028+482.881+619.897+482.168+618.75+481.5C618.275+481.224+617.755+480.982+617.312+480.656C616.423+480.001+615.685+479.122+614.875+478.375C613.315+476.936+611.463+475.777+609.312+475.531C606.52+475.212+603.691+476.44+602.219+478.875C601.446+480.153+601.131+481.572+600.906+483.031C600.834+483.502+600.766+483.968+600.688+484.438C600.667+484.563+600.655+484.688+600.625+484.812C600.524+484.892+600.411+484.965+600.312+485.031C600.009+485.234+599.671+485.401+599.344+485.562C598.212+486.121+596.995+486.51+595.781+486.844C590.562+488.277+585.04+488.696+579.656+488.969C575.435+489.183+571.193+489.247+566.969+489.156C561.727+489.043+556.312+488.616+551.406+486.625C550.522+486.266+549.681+485.832+548.844+485.375C548.532+485.205+548.075+484.982+547.812+484.719C547.356+484.261+547.035+483.68+546.656+483.156C545.895+482.104+545.105+481.08+544.125+480.219C541.773+478.151+538.589+477.306+535.5+477.438C533.286+477.532+530.943+478.078+529.094+479.344C528.15+479.99+527.344+480.856+526.594+481.719C526.153+482.226+525.779+482.825+525.281+483.281C524.616+483.892+523.433+484.671+522.688+485.188C520.594+486.639+518.407+487.938+516.031+488.875C509.243+491.551+501.782+491.685+494.594+492.094C489.92+492.36+485.25+492.924+480.562+492.844C477.997+492.8+475.444+492.489+472.906+492.125C471.469+491.919+470.005+491.682+468.625+491.219C468.196+491.075+467.691+490.888+467.312+490.625C466.278+489.907+465.528+488.601+464.719+487.656C463.526+486.264+462.339+484.858+461.219+483.406C460.984+483.102+460.73+482.829+460.531+482.5C459.995+481.613+459.671+480.587+459.219+479.656C458.288+477.74+456.901+476.006+454.906+475.125C454.271+474.844+453.689+474.658+453+474.562C452.336+474.47+451.496+474.461+450.844+474.594C449.899+474.786+449.125+475.117+448.344+475.688C446.095+477.331+445.733+479.98+445.719+482.562C445.717+482.834+445.695+483.145+445.688+483.438C445.252+484.064+444.851+484.692+444.344+485.281C443.016+486.823+441.484+488.147+439.844+489.344C433.703+493.821+426.482+496.48+419+497.625C413.308+498.496+407.607+498.441+401.875+498.125C397.471+497.882+392.87+497.3+389.312+494.438C388.729+493.968+388.175+493.443+387.688+492.875C387.416+492.559+387.408+492.483+387.156+492.156C387.147+492.144+387.133+492.142+387.125+492.125C387.109+491.495+386.973+490.803+386.906+490.188C386.556+486.94+385.069+484.018+381.562+483.281C378.21+482.577+375.18+484.737+374.156+487.875C373.85+488.813+373.74+489.776+373.625+490.75C373.58+491.132+373.526+491.526+373.469+491.906C372.501+493.119+371.581+494.247+370.312+495.188C367.998+496.903+365.205+497.918+362.375+498.375C356.982+499.245+351.325+498.144+346.188+496.5C345.035+496.131+343.933+495.719+342.875+495.125C342.213+494.753+341.624+494.293+341+493.875C339.521+490.982+337.769+488.04+334.062+487.938C333.659+487.926+333.243+487.938+332.844+488C328.962+488.608+327.238+492.067+327.094+495.656C327.066+496.356+327.073+497.05+327.062+497.75C327.062+497.777+327.018+498.212+327.031+498.219C326.939+498.49+326.874+498.76+326.781+499.031C326.543+499.727+326.316+500.308+326.062+501C325.282+503.134+324.418+505.246+323.406+507.281C322.745+508.611+322.043+509.919+321.219+511.156C320.664+511.989+320.04+512.784+319.375+513.531C316.908+516.305+314.822+516.823+311.156+517.125C310.394+517.188+309.671+517.213+308.906+517.219C307.467+517.23+306.046+517.136+304.625+516.906C303.316+516.695+302.02+516.384+300.781+515.906C296.376+514.209+293.872+510.974+292.531+506.562C292.245+505.622+291.865+504.518+291.812+503.531C291.749+502.331+292.061+501.104+292.125+499.906C292.264+497.318+291.665+494.743+289.75+492.875C289.28+492.417+288.589+491.899+288+491.625C285.758+490.582+283.28+490.964+281.438+492.594C279.853+493.995+279.14+496.11+278.25+497.969C277.826+498.476+277.423+498.961+277+499.469C275.133+501.711+273.342+503.03+270.812+504.469C269.649+505.131+268.463+505.752+267.219+506.25C266.849+506.398+266.478+506.518+266.094+506.625C266.012+506.648+265.926+506.669+265.844+506.688C265.793+506.699+265.636+506.72+265.688+506.719C266.053+506.71+264.904+506.691+264.844+506.688C264.525+506.67+264.225+506.647+263.906+506.625C263.021+506.565+262.126+506.489+261.25+506.344C260.432+506.208+260.215+505.974+258.094+505.062C258.053+505.015+258.043+504.953+258+504.906C257.523+503.97+257.59+504.188+257.531+503.969C257.367+503.359+257.33+502.689+257.281+502.062C257.127+500.08+256.985+498.08+256.906+496.094C256.83+494.166+257.596+492.587+258.344+490.844C258.9+489.546+259.389+488.201+259.781+486.844C260.252+485.214+260.591+483.571+260.906+481.906C261.216+480.268+261.539+478.824+262.75+477.625C263.491+476.892+264.336+476.259+265.312+475.875C266.683+475.336+268.276+475.378+269.719+475.312C271.247+475.243+272.786+475.131+274.312+475.031C281.06+474.589+287.837+474.362+294.594+474.75C297.383+474.91+300.162+475.254+302.938+475.562C306.786+475.99+310.543+476.087+314.406+475.688C320.728+475.034+326.88+473.278+333.188+472.531C339.456+471.789+345.773+471.551+352.062+471.062C359.05+470.519+365.998+469.663+372.969+468.938C387.206+467.456+401.43+466.245+415.75+466.031C438.129+465.697+460.548+466.918+482.906+465.469C493.83+464.761+504.734+463.416+515.594+462.062C537.802+459.295+559.928+455.913+582.219+453.844C618.684+450.458+655.324+450.441+691.875+448.594C698.034+448.283+704.205+447.952+710.344+447.344C722.933+446.097+735.453+443.967+747.969+442.156C752.067+441.563+756.168+441.005+760.281+440.531C763.4+440.172+766.547+439.912+769.656+439.469C772.724+439.031+775.759+438.431+778.812+437.906C781.075+437.517+783.336+437.132+785.625+436.938C787.978+436.737+790.334+436.644+792.688+436.438C797.45+436.019+802.213+435.465+807+435.469Z" fill="#000000"/>
</g>
<g opacity="1">
<path fill="#af4835" d="M266.488+513.06C264.216+523.494+268.071+534.389+267.887+545.066C267.838+547.953+267.164+550.866+267.588+553.722C267.946+556.136+268.276+559.048+270.186+560.566C271.995+562.004+274.786+561.021+277.083+561.271C285.147+562.147+291.883+563.742+299.972+562.68C316.042+560.569+331.955+557.483+348.148+556.339C355.933+555.789+363.749+556.418+371.537+556.138C398.159+555.18+424.717+552.896+451.398+553.823C502.009+555.58+552.527+558.345+603.224+557.245C620.891+556.862+638.479+553.211+656.098+551.81C688.547+549.23+721.193+547.112+753.451+542.852C762.729+541.627+781.82+544.159+786.235+534.498C789.241+527.92+787.283+520.167+787.734+513.261C788.05+508.429+788.772+503.61+788.733+498.768C788.717+496.731+788.987+488.523+787.234+486.69C785.704+485.089+783.018+485.334+780.937+484.576C778.685+483.756+776.289+483.204+774.241+481.959C772.523+480.915+771.799+478.295+769.843+477.833C763.375+476.303+755.509+484.177+750.052+486.488C742.121+489.848+733.559+490.019+725.064+489.508C718.977+489.142+711.09+488.067+706.074+484.173C704.426+482.894+703.351+481.012+701.976+479.443C700.586+477.858+699.879+474.88+697.778+474.712C695.424+474.525+693.712+477.147+691.881+478.638C689.864+480.28+688.292+482.421+686.283+484.073C680.821+488.564+674.359+493.045+667.293+494.339C665.15+494.731+656.706+494.457+654.399+494.44C645.159+494.369+634.308+495.168+625.413+492.225C622.99+491.424+620.819+489.991+618.616+488.703C616.682+487.572+615.247+485.221+613.019+484.979C609.178+484.561+606.978+489.818+604.223+492.527C602.725+494.001+600.817+495.031+598.926+495.949C592.242+499.195+584.18+499.356+576.937+499.774C564.084+500.516+551.509+495.149+540.754+488.199C538.821+486.95+537.688+484.337+535.457+483.771C526.691+481.547+523.628+491.964+517.666+495.849C510.496+500.52+500.955+500.955+492.778+502.19C490.779+502.492+488.797+503.249+486.781+503.096C481.578+502.699+479.61+500.065+475.086+497.962C468.975+495.122+462.508+495.078+457.395+490.212C454.416+487.378+450.86+482.152+447+483.57C445.1+484.267+444.99+487.129+443.602+488.602C441.826+490.485+439.614+491.902+437.605+493.534C427.097+502.067+412.517+509.906+398.524+505.209C392.568+503.21+386.861+497.269+382.731+492.729C381.254+491.105+380.928+487.55+378.733+487.495C376.592+487.441+375.85+490.697+374.735+492.527C373.666+494.283+373.312+496.412+372.237+498.164C369.404+502.777+367.146+505.129+361.842+506.719C359.593+507.393+356.984+508.492+354.845+507.524C352.479+506.454+351.795+503.306+350.047+501.385C347.378+498.449+343.179+495.111+339.852+492.93C338.114+491.791+336.371+489.006+334.455+489.81C332.215+490.75+332.106+494.112+331.456+496.453C330.824+498.73+331.108+501.178+330.657+503.498C329.831+507.746+328.567+513.177+325.06+516.281C317.108+523.317+300.419+518.252+293.575+511.651C292.07+510.199+291.245+508.169+290.277+506.316C289.241+504.335+289.665+500.976+287.578+500.177C285.398+499.342+283.119+501.654+281.081+502.794C276.047+505.61+267.713+507.435+266.488+513.06Z" opacity="1"/>
<path fill="#000000" d="M696.625+469.531C693.512+469.874+691.298+471.987+689.156+474.062C688.569+474.632+687.941+475.127+687.344+475.688C686.34+476.629+685.429+477.672+684.469+478.656C682.814+480.351+680.855+481.774+678.938+483.156C676.731+484.746+674.444+486.237+671.969+487.375C670.204+488.186+668.102+489.048+666.156+489.219C664.007+489.407+661.81+489.341+659.656+489.312C656.708+489.273+653.761+489.197+650.812+489.219C643.561+489.273+636.059+489.624+628.969+487.812C626.531+487.19+624.562+486.125+622.406+484.844C621.989+484.596+621.554+484.372+621.156+484.094C620.027+483.304+619.14+482.222+617.969+481.469C615.978+480.188+613.778+479.475+611.406+479.781C608.001+480.221+605.48+482.578+603.438+485.156C602.074+486.877+600.921+488.783+599+489.938C593.31+493.355+586.811+493.937+580.312+494.312C576.728+494.52+573.2+494.738+569.625+494.281C561.264+493.213+553.355+489.691+546.188+485.375C545.328+484.857+544.165+484.331+543.438+483.625C542.012+482.242+540.896+480.656+539.125+479.625C537.24+478.527+534.912+478.131+532.75+478.188C527.891+478.315+524.008+481.22+520.906+484.75C518.887+487.048+517.161+489.76+514.625+491.531C512.533+492.992+509.911+493.831+507.469+494.469C503.105+495.609+498.582+496.046+494.125+496.656C492.99+496.812+491.843+496.962+490.719+497.188C489.499+497.432+488.259+497.881+487+497.812C485.035+497.705+483.373+496.658+481.75+495.656C480.316+494.772+478.868+493.91+477.344+493.188C474.192+491.694+470.803+490.884+467.5+489.812C465.534+489.175+463.588+488.428+461.938+487.156C460.475+486.029+459.286+484.531+458+483.219C455.193+480.353+451.682+477.67+447.438+478.094C444.734+478.363+442.468+479.784+441.062+482.094C440.49+483.034+440.183+484.108+439.656+485.062C439.394+485.537+438.751+485.945+438.344+486.281C437.04+487.359+435.638+488.355+434.312+489.406C428.416+494.08+421.971+498.337+414.625+500.312C412.673+500.837+410.702+501.135+408.688+501.281C405.548+501.509+402.078+501.069+399.188+499.781C395.123+497.971+391.761+494.6+388.75+491.438C388.046+490.698+387.379+489.938+386.688+489.188C386.652+489.122+386.593+489.034+386.562+488.969C386.484+488.803+386.42+488.635+386.344+488.469C386.255+488.274+386.152+488.069+386.062+487.875C385.84+487.393+385.579+486.795+385.312+486.344C384.094+484.28+382.262+482.684+379.844+482.281C378.896+482.123+377.902+482.183+376.969+482.406C374.631+482.966+372.862+484.672+371.719+486.719C371.204+487.641+370.807+488.631+370.312+489.562C369.809+490.511+369.333+491.435+368.938+492.438C368.526+493.479+368.19+494.559+367.625+495.531C366.686+497.146+365.547+498.854+364.031+499.969C362.318+501.228+360.075+501.771+358.062+502.344C357.75+502.433+357.442+502.481+357.125+502.531C356.43+501.552+355.928+500.461+355.25+499.469C354.637+498.573+353.909+497.751+353.156+496.969C351.147+494.88+348.894+492.978+346.594+491.219C345.323+490.247+343.943+489.422+342.688+488.438C341.946+487.856+341.326+487.127+340.594+486.531C338.801+485.075+336.602+484.13+334.25+484.438C329.865+485.012+327.733+488.815+326.844+492.75C326.484+494.342+326.071+495.942+325.875+497.562C325.707+498.948+325.718+500.333+325.562+501.719C325.418+503.005+325.096+504.31+324.781+505.562C324.274+507.579+323.633+509.685+322.375+511.375C319.689+514.983+313.791+514.651+309.938+513.875C309.062+513.699+308.262+513.503+307.406+513.25C306.61+513.014+305.712+512.706+304.938+512.406C303.761+511.951+302.609+511.413+301.5+510.812C299.87+509.93+297.761+508.725+296.719+507.125C296.077+506.14+295.417+505.001+295+503.906C294.61+502.882+294.582+501.704+294.25+500.656C293.478+498.22+291.931+496.169+289.5+495.219C286.878+494.194+284.084+494.8+281.688+496.125C280.571+496.743+279.579+497.534+278.469+498.156C276.774+499.106+274.958+499.805+273.188+500.594C269.206+502.368+264.997+504.52+262.688+508.406C262.334+509.002+262.709+508.396+261.375+511.656C261.16+512.442+261.147+513.217+261.281+513.969C261.177+514.558+260.985+515.653+260.906+516.562C260.737+518.534+260.702+520.523+260.781+522.5C261.018+528.415+262.213+534.233+262.688+540.125C262.832+541.922+262.934+543.76+262.844+545.562C262.696+548.508+262.252+551.349+262.594+554.312C263.076+558.492+264.292+563.146+268.281+565.312C269.913+566.198+271.759+566.449+273.594+566.406C274.509+566.385+275.428+566.223+276.344+566.25C277.045+566.27+277.743+566.413+278.438+566.5C282.951+567.063+287.48+567.804+292.031+568C295.617+568.154+299.112+567.888+302.656+567.406C317.921+565.334+333.114+562.44+348.5+561.375C354.888+560.933+361.293+561.295+367.688+561.25C372.934+561.213+378.166+560.927+383.406+560.688C403.805+559.755+424.225+558.347+444.656+558.688C452.115+558.812+459.577+559.151+467.031+559.438C478.625+559.883+490.218+560.348+501.812+560.781C535.636+562.044+569.495+563.074+603.344+562.312C615.352+562.042+627.229+560.324+639.125+558.812C646.929+557.821+654.751+557.014+662.594+556.406C682.946+554.83+703.311+553.428+723.625+551.406C730.745+550.698+737.861+549.919+744.969+549.094C748.361+548.7+751.725+548.159+755.125+547.844C757.408+547.632+759.709+547.594+762+547.531C763.662+547.486+765.339+547.426+767+547.344C774.714+546.961+784.351+545.949+789.375+539.25C790.228+538.113+790.857+536.884+791.375+535.562C792.194+533.475+792.671+531.257+792.906+529.031C793.397+524.384+792.731+519.745+792.812+515.094C792.878+511.373+793.463+507.678+793.719+503.969C793.983+500.132+794.044+496.158+793.781+492.312C793.565+489.14+793.254+485.488+790.938+483.062C788.72+480.74+786.13+480.525+783.219+479.844C782.224+479.611+781.25+479.226+780.281+478.906C779.369+478.605+778.428+478.298+777.562+477.875C777.388+477.79+777.232+477.689+777.062+477.594C776.555+476.819+775.836+475.884+775.219+475.281C774.688+474.763+774.154+474.246+773.531+473.844C771.62+472.61+769.05+472.293+766.812+472.531C762.142+473.03+758.047+475.491+754.188+478C752.205+479.288+750.226+480.79+748.031+481.719C740.924+484.725+732.954+484.786+725.375+484.312C721.863+484.093+718.328+483.7+714.938+482.719C712.918+482.134+710.932+481.346+709.25+480.062C708.516+479.502+707.957+478.624+707.406+477.906C706.899+477.244+706.338+476.608+705.844+475.938C705.158+475.008+704.727+473.931+704.031+473C702.644+471.142+700.797+469.891+698.469+469.562C697.898+469.482+697.206+469.467+696.625+469.531ZM696.844+481.125C697.375+481.946+697.945+482.727+698.562+483.5C699.568+484.759+700.499+486.088+701.656+487.219C702.8+488.337+704.113+489.241+705.5+490.031C709.789+492.474+714.707+493.598+719.562+494.219C724.218+494.814+728.995+495.032+733.688+494.906C740.53+494.723+747.801+493.648+753.906+490.375C757.299+488.556+760.319+486.12+763.719+484.312C764.998+483.633+766.538+482.873+768.031+482.844C768.264+483.157+768.524+483.512+768.688+483.719C769.52+484.776+770.467+485.701+771.625+486.406C773.317+487.436+775.161+488.101+777.031+488.719C779.043+489.383+781.056+489.927+783.125+490.344C783.226+490.856+783.358+491.362+783.406+491.875C783.688+494.883+783.636+497.982+783.531+501C783.392+505.004+782.809+508.971+782.594+512.969C782.352+517.474+782.949+521.967+782.75+526.469C782.658+528.543+782.446+531.05+781.281+532.844C779.614+535.412+775.215+536.144+772.531+536.531C765.657+537.524+758.667+536.998+751.781+537.875C722.213+541.64+692.521+543.863+662.812+546.188C657.45+546.607+652.066+547.001+646.719+547.594C635.737+548.811+624.826+550.618+613.812+551.562C606.057+552.228+598.28+552.298+590.5+552.375C561.048+552.665+531.616+551.776+502.188+550.688C490.596+550.259+478.997+549.785+467.406+549.344C459.879+549.058+452.344+548.717+444.812+548.594C431.389+548.375+417.968+548.892+404.562+549.531C393.511+550.059+382.467+550.774+371.406+551.094C363.544+551.321+355.667+550.769+347.812+551.312C337.913+551.997+328.054+553.417+318.25+554.906C313.591+555.614+308.945+556.328+304.281+557C301.491+557.402+298.665+557.869+295.844+557.969C291.734+558.114+287.656+557.577+283.594+557.031C281.03+556.687+278.38+556.138+275.781+556.188C274.922+556.204+274.073+556.269+273.219+556.281C273.191+556.227+273.164+556.156+273.156+556.125C273.072+555.81+272.973+555.507+272.906+555.188C272.62+553.829+272.442+552.421+272.5+551.031C272.583+549.046+272.894+547.084+272.906+545.094C272.934+540.816+272.464+536.578+271.906+532.344C271.37+528.271+271.859+531.474+271.438+514.812C271.482+514.686+271.589+514.6+271.625+514.469C271.942+513.686+271.779+513.901+271.938+513.688C272.2+513.333+272.556+513.012+272.906+512.75C275.638+510.705+279.052+509.735+282.094+508.25C283.056+507.78+283.948+507.229+284.844+506.656C285.161+507.681+285.505+508.675+286+509.656C286.799+511.241+287.632+512.798+288.75+514.188C289.768+515.452+290.987+516.528+292.281+517.5C294.496+519.162+296.966+520.517+299.5+521.625C307.05+524.925+316.88+526.623+324.625+522.875C330.641+519.963+333.482+514.427+335.062+508.156C335.494+506.445+335.892+504.692+336.094+502.938C336.251+501.571+336.246+500.178+336.406+498.812C336.476+498.218+336.636+497.643+336.781+497.062C337.378+497.493+337.903+498.014+338.5+498.438C340.486+499.847+342.4+501.377+344.188+503.031C344.973+503.758+345.871+504.507+346.469+505.406C347.589+507.093+348.367+508.881+349.812+510.344C352.08+512.638+355.243+513.506+358.406+513.094C360.36+512.839+362.259+512.175+364.125+511.562C366.307+510.846+368.422+509.862+370.281+508.5C373.3+506.289+375.873+502.944+377.5+499.562C378.025+498.472+378.358+497.306+378.812+496.188C379.545+497.068+380.312+497.929+381.094+498.75C382.374+500.093+383.662+501.404+385.031+502.656C387.976+505.349+391.238+507.843+394.906+509.469C399.081+511.318+403.799+512.051+408.344+511.906C419.892+511.538+430.608+505.709+439.531+498.75C440.993+497.61+442.437+496.474+443.906+495.344C445.224+494.33+446.641+493.24+447.688+491.938C448.287+491.192+448.754+490.356+449.188+489.5C450.046+490.211+450.839+491.005+451.594+491.812C453.068+493.391+454.563+494.914+456.344+496.156C458.747+497.833+461.443+498.97+464.219+499.875C466.673+500.675+469.219+501.272+471.625+502.219C475.168+503.613+478.065+506.209+481.688+507.438C483.705+508.122+485.899+508.48+488.031+508.375C490.238+508.266+492.383+507.592+494.562+507.281C503.011+506.076+511.929+505.439+519.438+500.969C522.211+499.317+524.362+497.094+526.406+494.625C527.886+492.838+529.558+490.309+531.625+489.156C532.068+488.909+532.521+488.734+533.031+488.719C533.244+488.712+533.699+488.878+533.875+488.812C533.891+488.825+533.897+488.834+533.906+488.844C534.07+489.024+534.241+489.196+534.406+489.375C534.506+489.483+534.59+489.578+534.688+489.688C535.19+490.251+535.694+490.831+536.25+491.344C537.592+492.581+539.194+493.47+540.75+494.406C543.2+495.88+545.737+497.257+548.312+498.5C555.144+501.797+562.481+504.217+570.062+504.906C574.321+505.293+578.588+504.975+582.844+504.688C587.658+504.362+592.519+503.82+597.125+502.312C601.435+500.902+605.808+498.736+608.844+495.281C609.85+494.136+610.712+492.851+611.656+491.656C611.948+491.287+612.308+490.943+612.656+490.594C612.732+490.661+612.8+490.745+612.875+490.812C613.383+491.271+613.869+491.731+614.406+492.156C616.274+493.633+618.615+494.881+620.75+495.938C626.122+498.597+632.368+499.312+638.281+499.594C644.149+499.873+650.036+499.588+655.906+499.688C658.463+499.731+661.005+499.808+663.562+499.781C665.496+499.761+667.418+499.67+669.312+499.25C675.075+497.973+680.313+495.052+685.062+491.625C687.048+490.192+689.023+488.707+690.812+487.031C691.956+485.961+692.982+484.757+694.094+483.656C694.978+482.781+695.954+481.997+696.844+481.125Z" opacity="1"/>
</g>
<g opacity="1">
<path d="M270.136+568.266C267.989+568.371+265.625+567.482+263.69+568.417C261.641+569.406+260.436+571.645+259.192+573.55C254.349+580.965+253.921+591.733+263.789+594.485C273.714+597.253+285.12+595.423+295.274+595.794C323.298+596.817+354.013+599.597+381.832+596.096C394.814+594.461+408.43+593.241+421.513+592.875C436.253+592.462+450.994+594.254+465.791+593.479C505.528+591.397+545.15+585.553+584.933+584.521C616.304+583.707+647.349+586.393+678.587+583.112C685.059+582.432+691.598+582.605+698.078+582.005C709.323+580.962+720.443+578.913+731.661+577.777C741.686+576.763+752.208+578.793+762.146+577.073C768.989+575.888+775.654+573.833+782.437+572.342C790.086+570.662+799.376+568.897+804.626+562.579C806.006+560.918+807.759+559.102+807.824+556.943C808.193+544.764+783.772+540.996+774.64+541.141C761.328+541.352+748.81+544.684+735.659+546.375C716.576+548.828+697.315+549.775+678.187+551.81C663.583+553.363+649.338+553.056+634.709+553.823C623.738+554.397+612.779+555.579+601.825+556.138C590.217+556.73+578.536+555.736+566.942+555.433C549.599+554.981+532.215+556.399+514.867+556.138C491.585+555.788+468.463+553.041+445.101+553.923C437.841+554.198+430.751+555.595+423.512+555.936C413.889+556.391+404.339+555.001+394.726+556.238C381.945+557.884+369.219+560.915+356.444+562.479C351.668+563.063+346.863+561.372+342.051+561.372C334.401+561.372+325.973+564.075+318.363+564.894C311.369+565.647+303.143+567.257+296.174+567.209C293.741+567.193+291.405+566.145+288.977+566.001C282.633+565.626+276.469+567.958+270.136+568.266Z" opacity="1" fill="#6f5518"/>
<path opacity="1" d="M771.438+536.031C760.282+536.484+749.198+539.138+738.188+540.75C720.908+543.28+703.429+544.078+686.062+545.781C679.716+546.404+673.368+547.082+667+547.438C656.162+548.042+645.311+548.039+634.469+548.562C621.631+549.183+608.829+550.925+595.969+551.062C583.391+551.197+570.83+550.016+558.25+550.062C543.806+550.116+529.385+551.012+514.938+550.844C493.562+550.595+472.266+548.159+450.875+548.469C446.974+548.525+443.072+548.657+439.188+549.031C433.867+549.544+428.56+550.367+423.219+550.656C418.563+550.908+413.905+550.615+409.25+550.5C404.193+550.376+399.156+550.384+394.125+550.969C384.406+552.099+374.803+554.242+365.156+555.844C361.934+556.379+358.663+556.98+355.406+557.25C352.788+557.467+350.142+556.884+347.562+556.531C344.244+556.078+340.991+555.987+337.656+556.312C332.17+556.848+326.841+558.285+321.406+559.125C318.347+559.598+315.285+559.893+312.219+560.312C307.984+560.891+303.709+561.574+299.438+561.812C298.204+561.881+296.856+562.038+295.625+561.875C294.568+561.735+293.54+561.409+292.5+561.188C291.112+560.892+289.732+560.697+288.312+560.656C283.978+560.531+288.335+560.651+269.656+562.969C269.408+562.992+269.204+563.132+268.969+563.188C268.915+563.184+268.601+563.17+268.469+563.156C267.528+563.055+266.571+562.928+265.625+562.969C262.319+563.111+259.799+564.479+257.688+566.938C256.772+568.003+256.036+569.164+255.281+570.344C254.199+572.035+253.202+573.781+252.469+575.656C250.1+581.717+250.004+589.149+254.375+594.344C255.21+595.336+256.184+596.199+257.25+596.938C259.664+598.61+262.461+599.456+265.312+600.031C275.683+602.125+286.361+600.468+296.844+600.875C316.885+601.652+336.901+603.147+356.969+602.781C363.07+602.67+369.202+602.414+375.281+601.875C379.849+601.47+384.381+600.825+388.938+600.312C396.577+599.454+404.231+598.785+411.906+598.344C418.14+597.986+424.381+597.779+430.625+597.906C437.382+598.044+444.12+598.454+450.875+598.625C455.912+598.753+460.965+598.728+466+598.531C476.85+598.107+487.687+597.118+498.5+596.156C517.08+594.505+535.645+592.605+554.25+591.25C557.947+590.981+561.643+590.651+565.344+590.438C577.061+589.76+588.859+589.402+600.594+589.438C616.219+589.485+631.842+590.06+647.469+589.875C655.377+589.782+663.268+589.497+671.156+588.906C674.32+588.669+677.495+588.332+680.656+588.062C683.817+587.793+686.988+587.709+690.156+587.594C704.286+587.078+718.147+584.335+732.188+582.906C740.608+582.049+749.068+583.418+757.5+582.812C763.531+582.379+769.441+580.886+775.281+579.406C778.678+578.546+782.078+577.719+785.5+576.969C792.251+575.489+799.254+573.784+804.844+569.5C806.533+568.205+807.956+566.695+809.312+565.062C811.61+562.298+813.198+559.629+813+555.906C812.445+545.489+801.105+540.583+792.438+538.312C791.171+537.981+789.691+537.633+788.406+537.375C786.488+536.99+784.536+536.677+782.594+536.438C778.861+535.977+775.156+535.88+771.438+536.031ZM775.75+546.344C780.472+546.43+785.248+547.155+789.812+548.344C793.263+549.243+796.846+550.437+799.781+552.531C800.743+553.217+801.7+554.06+802.25+555.125C802.507+555.623+802.589+556.117+802.625+556.656C802.603+556.689+802.569+556.81+802.531+556.875C802.505+556.92+802.498+556.958+802.469+557C802.304+557.234+802.144+557.462+801.969+557.688C801.776+557.936+801.545+558.196+801.344+558.438C800.803+559.086+800.27+559.731+799.656+560.312C797.444+562.411+794.631+563.683+791.781+564.656C787.252+566.203+782.486+566.975+777.844+568.094C772.856+569.296+767.915+570.709+762.875+571.688C753.295+573.548+743.57+571.902+733.906+572.438C730.128+572.647+726.344+573.192+722.594+573.688C715.633+574.607+708.696+575.679+701.719+576.469C693.216+577.431+684.639+577.383+676.125+578.219C645.739+581.203+615.23+578.507+584.781+579.438C571.433+579.846+558.091+580.697+544.781+581.781C519.996+583.801+495.297+586.669+470.469+588.156C466.444+588.397+462.408+588.597+458.375+588.625C451.063+588.676+443.742+588.223+436.438+587.969C430.304+587.756+424.165+587.702+418.031+587.938C409.045+588.282+400.067+588.99+391.125+589.938C386.675+590.409+382.262+591.023+377.812+591.5C373.194+591.995+368.547+592.301+363.906+592.5C344.049+593.351+324.174+592.03+304.344+591.125C300.482+590.949+296.617+590.745+292.75+590.719C288.729+590.692+284.707+590.89+280.688+590.969C276.591+591.049+272.458+591.057+268.406+590.375C266.944+590.129+265.434+589.84+264.062+589.25C259.456+587.268+260.689+581.337+262.531+577.75C263.128+576.588+263.895+575.49+264.625+574.406C264.894+574.007+265.167+573.599+265.5+573.25C265.572+573.174+265.668+573.1+265.75+573.031C265.816+573.012+265.832+572.997+265.875+573C266.095+573.014+266.311+573.046+266.531+573.062C266.666+573.073+267.893+573.135+268.219+573.156C268.971+573.454+269.765+573.643+270.625+573.562C286.143+571.324+280.855+571.643+286.156+571.312C287.224+571.246+288.315+571.209+289.375+571.375C291.033+571.635+292.642+572.167+294.312+572.375C296.204+572.61+298.135+572.512+300.031+572.406C304.587+572.151+309.14+571.462+313.656+570.844C316.786+570.415+319.91+570.081+323.031+569.594C328.263+568.778+333.407+567.361+338.688+566.844C340.456+566.67+342.227+566.628+344+566.781C348.115+567.136+352.121+568.171+356.281+567.812C359.822+567.508+363.372+566.863+366.875+566.281C376.352+564.706+385.797+562.618+395.344+561.5C403.952+560.492+412.587+561.485+421.219+561.312C429.299+561.151+437.247+559.532+445.312+559.219C467.515+558.356+489.665+560.869+511.844+561.375C527.336+561.728+542.793+560.69+558.281+560.625C570.886+560.572+583.459+561.737+596.062+561.594C607.706+561.462+619.326+560.065+630.938+559.312C643.141+558.521+655.386+558.595+667.594+557.906C676.884+557.382+686.136+556.271+695.406+555.469C709.061+554.287+722.75+553.356+736.344+551.562C742.911+550.696+749.405+549.428+755.938+548.344C762.456+547.262+769.122+546.223+775.75+546.344Z" fill="#000000"/>
</g>
<g opacity="1">
<path opacity="1" d="M272.162+604.329C265.939+604.099+257.197+603.283+251.858+607.329C244.431+612.958+244.845+627.765+244.354+635.887C243.543+649.315+241.821+679.523+252.299+689.558C254.296+691.47+263.25+695.659+265.983+696.448C277.859+699.876+290.367+698.406+302.509+699.226C335.206+701.434+367.687+700.789+400.389+701.781C420.785+702.401+441.252+706.355+461.633+706.115C475.476+705.952+489.346+704.741+503.235+704.671C515.264+704.61+527.747+705.924+539.761+705.004C548.155+704.361+556.506+703.064+564.921+702.782C574.28+702.467+583.581+703.927+592.949+704.004C608.376+704.131+624.447+704.726+639.848+703.893C656.003+703.018+672.088+700.79+688.292+700.115C702.312+699.53+716.467+699.998+730.445+698.781C746.891+697.35+763.075+691.797+779.441+689.892C789.009+688.777+795.927+691.705+804.159+685.113C813.011+678.027+814.395+664.568+818.284+654.777C819.173+652.538+821.479+650.982+822.146+648.666C825.208+638.036+821.311+625.965+820.822+615.33C820.403+606.237+825.813+594.842+821.925+585.994C820.955+583.786+818.854+582.274+817.291+580.438C815.764+578.644+814.74+576.202+812.656+575.104C810.524+573.981+807.878+574.481+805.483+574.215C794.136+572.955+783.494+576.541+772.157+577.549C763.834+578.288+755.96+580.651+747.77+581.882C733.119+584.084+717.723+583.487+702.968+583.66C689.748+583.815+676.559+585.349+663.353+585.994C642.237+587.025+621.293+589.881+600.232+591.661C586.975+592.781+573.661+591.959+560.396+592.439C539.261+593.203+518.069+593.605+496.945+594.439C475.473+595.287+454.003+597.227+432.501+598.106C416.643+598.754+400.654+595.659+384.83+596.439C364.761+597.428+345.318+600.865+325.351+602.551C307.5+604.058+290.021+604.988+272.162+604.329Z" fill="#cc9f63"/>
<path opacity="1" fill="#000000" d="M801.344+568.719C798.328+568.672+795.305+568.891+792.312+569.25C787.18+569.866+782.111+570.933+777+571.688C773.044+572.271+769.071+572.554+765.125+573.219C760.354+574.022+755.631+575.15+750.875+576.031C735.046+578.964+718.918+578.195+702.906+578.406C689.6+578.582+676.342+579.999+663.062+580.75C650.231+581.476+637.439+582.654+624.656+583.969C615.314+584.929+605.969+586.04+596.594+586.625C586.731+587.24+576.842+586.877+566.969+587C560.319+587.083+553.678+587.396+547.031+587.594C536.45+587.909+525.862+588.198+515.281+588.531C503.694+588.896+492.105+589.293+480.531+589.969C464.454+590.907+448.407+592.195+432.312+592.812C421.848+593.214+411.431+591.967+401+591.375C395.558+591.066+390.105+590.992+384.656+591.156C381.651+591.247+378.652+591.477+375.656+591.719C369.387+592.225+363.152+592.944+356.906+593.688C344.78+595.131+332.647+596.666+320.469+597.625C310.274+598.428+300.07+599.025+289.844+599.188C286.207+599.245+289.828+599.2+272.312+599.031C271.846+599.017+271.434+599.15+271+599.25C270.027+599.208+269.091+599.156+268.156+599.125C266.546+599.072+264.955+599.039+263.344+599.094C257.419+599.294+251.204+600.585+246.938+605C243.813+608.233+242.12+612.559+241.125+616.875C239.707+623.025+239.703+629.328+239.344+635.594C238.616+648.293+237.996+661.221+240.219+673.812C241.372+680.346+243.376+687.315+247.969+692.312C249.959+694.478+252.57+695.86+255.156+697.188C257.851+698.57+260.613+699.886+263.469+700.906C267.46+702.332+271.831+702.964+276.031+703.375C284.736+704.227+293.496+703.744+302.219+704.25C313.151+704.885+324.082+705.411+335.031+705.688C354.388+706.176+373.738+706.104+393.094+706.625C400.491+706.824+407.877+707.117+415.25+707.781C427.232+708.86+439.192+710.484+451.219+711C454.68+711.148+458.192+711.195+461.656+711.188C475.541+711.156+489.395+709.851+503.281+709.75C513.478+709.676+523.646+710.637+533.844+710.375C545.028+710.088+556.089+707.869+567.281+707.812C574.217+707.778+581.11+708.656+588.031+708.969C594.177+709.247+600.35+709.186+606.5+709.281C615.076+709.415+623.675+709.547+632.25+709.312C648.41+708.871+664.415+706.76+680.531+705.688C687.23+705.242+693.944+705.033+700.656+704.938C712.87+704.763+725.193+704.88+737.312+703.156C750.027+701.348+762.397+697.622+775.094+695.75C777.758+695.357+780.398+694.908+783.094+694.812C786.646+694.687+790.204+694.946+793.75+694.625C797.715+694.266+801.533+693.074+804.906+690.938C811.061+687.04+814.891+680.859+817.438+674.156C819.471+668.805+820.705+663.21+822.688+657.844C822.84+657.43+822.945+656.981+823.156+656.594C823.482+655.997+823.96+655.5+824.375+654.969C825.105+654.034+825.76+653.233+826.312+652.156C827.618+649.608+828.045+646.539+828.312+643.719C829.23+634.062+826.5+624.68+826.031+615.094C825.85+611.39+826.731+607.653+827.375+604.031C828.465+597.906+829.375+591.433+827.281+585.406C826.582+583.392+825.544+581.615+824.125+580.031C823.132+578.922+821.933+577.97+821.031+576.781C820.114+575.572+819.372+574.252+818.344+573.125C817.11+571.772+815.726+570.704+814.031+570C811.742+569.049+809.325+569.189+806.906+569.094C805.045+569.021+803.211+568.747+801.344+568.719ZM802.438+579.219C804.25+579.299+806.027+579.502+807.844+579.531C808.289+579.539+808.888+579.526+809.375+579.562C809.602+579.579+809.752+579.617+809.969+579.656C810.002+579.662+810.012+579.64+810.062+579.656C810.716+580.11+811.115+580.784+811.562+581.438C812.132+582.269+812.711+583.114+813.375+583.875C814.235+584.86+815.185+585.75+816.094+586.688C816.463+587.068+816.918+587.528+817.125+588.031C818.503+591.376+818.223+595.06+817.719+598.562C816.971+603.75+815.605+608.887+815.594+614.156C815.575+623.352+818.562+632.339+818.062+641.562C817.979+643.101+817.778+644.653+817.438+646.156C817.343+646.574+817.299+646.999+817.094+647.375C816.388+648.667+815.212+649.706+814.438+650.969C813.559+652.401+813.015+654.014+812.469+655.594C810.489+661.322+809.222+667.32+806.75+672.875C805.097+676.59+802.822+680.013+799.344+682.219C794.703+685.162+789.166+684.344+783.938+684.438C779.409+684.519+774.834+685.225+770.375+686C758.158+688.122+746.226+691.695+733.906+693.25C729.207+693.843+724.449+694.096+719.719+694.281C709.765+694.671+699.829+694.573+689.875+694.938C670.526+695.645+651.328+698.55+631.969+699.094C622.886+699.349+613.771+699.197+604.688+699.062C599.291+698.982+593.893+699.021+588.5+698.781C581.407+698.466+574.328+697.615+567.219+697.656C555.951+697.722+544.849+699.925+533.594+700.219C523.46+700.483+513.321+699.517+503.188+699.594C489.317+699.698+475.494+701.022+461.625+701.062C446.392+701.107+431.301+699.077+416.156+697.719C408.912+697.069+401.674+696.755+394.406+696.562C374.704+696.039+354.984+696.116+335.281+695.625C324.443+695.355+313.635+694.815+302.812+694.188C295.176+693.745+287.508+694.074+279.875+693.594C275.656+693.329+271.218+692.915+267.188+691.562C264.405+690.629+261.717+689.27+259.125+687.906C257.831+687.225+256.27+686.468+255.375+685.5C253.985+683.997+253.02+682.078+252.281+680.188C251.122+677.219+250.424+674.08+249.938+670.938C248.251+660.045+248.641+648.902+249.281+637.938C249.668+631.317+249.446+624.449+251.188+618C251.918+615.296+253.125+612.251+255.719+610.812C258.473+609.285+256.667+610.599+271+609.406C271.333+609.483+271.645+609.614+272+609.625C277.646+609.778+275.767+609.752+277.656+609.781C279.531+609.81+281.407+609.84+283.281+609.844C289.259+609.855+295.215+609.726+301.188+609.469C316.109+608.826+330.985+607.487+345.812+605.719C354.411+604.693+363.003+603.543+371.625+602.719C376.063+602.295+380.542+601.883+385+601.75C390.144+601.597+395.268+601.647+400.406+601.938C410.485+602.508+420.514+603.697+430.625+603.469C433.571+603.402+436.526+603.203+439.469+603.062C447.561+602.675+455.634+602.148+463.719+601.625C478.366+600.678+493.017+599.845+507.688+599.344C520.02+598.923+532.354+598.62+544.688+598.25C552.154+598.026+559.624+597.657+567.094+597.562C577.144+597.435+587.21+597.818+597.25+597.188C601.042+596.949+604.811+596.534+608.594+596.188C618.246+595.302+627.884+594.222+637.531+593.281C644.477+592.604+651.441+591.964+658.406+591.531C662.369+591.285+666.319+591.133+670.281+590.875C680.117+590.234+689.955+589.241+699.812+588.969C712.861+588.608+725.909+589.2+738.938+588.156C743.583+587.784+748.23+587.195+752.812+586.344C757.511+585.471+762.13+584.327+766.844+583.531C769.255+583.124+771.695+582.852+774.125+582.594C783.55+581.591+792.895+578.798+802.438+579.219Z"/>
</g>
<g opacity="1">
<path opacity="1" d="M356.249+306.526C349.99+304.743+348.714+317.355+346.649+323.527C345.165+327.96+344.378+333.101+345.876+337.528C346.926+340.633+350.364+342.764+353.49+343.751C355.823+344.487+358.791+343.77+360.663+342.195C363.89+339.481+363.86+331.961+363.973+328.416C364.282+318.782+365.534+309.17+356.249+306.526Z" fill="#b6ac9e"/>
<path fill="#000000" d="M355.719+301.25C355.412+301.282+355.137+301.448+354.844+301.531C354.012+301.436+353.774+301.35+352.719+301.656C346.815+303.371+344.884+310.548+343.531+315.75C343.272+316.748+343.01+317.752+342.75+318.75C342.008+321.598+340.99+324.345+340.469+327.25C339.35+333.483+339.869+340.322+344.844+344.75C346.042+345.817+347.413+346.686+348.844+347.406C350.508+348.244+352.294+348.947+354.156+349.156C355.908+349.353+357.69+349.162+359.375+348.656C360.715+348.254+362.008+347.645+363.156+346.844C369.202+342.626+369.014+333.945+369.281+327.406C369.381+324.969+369.53+322.534+369.5+320.094C369.457+316.66+369.106+313.149+367.719+309.969C366.422+306.996+367.114+309.07+359.594+302.875C359.393+302.69+359.2+302.526+358.969+302.375C358.51+301.991+358.331+301.883+357.812+301.438C357.111+301.223+356.405+301.179+355.719+301.25ZM355.438+311.875C355.513+311.9+355.826+312.009+356+312.094C356.635+312.403+357.19+312.827+357.594+313.406C358.842+315.198+358.876+318.132+358.906+320.219C358.96+323.931+358.802+327.698+358.625+331.406C358.589+332.155+358.518+332.942+358.438+333.688C358.327+334.713+358.185+335.755+357.906+336.75C357.511+338.159+357.055+338.868+355.438+338.875C354.581+338.879+353.629+338.309+352.906+337.906C350.877+336.777+350.454+335.854+350.219+333.594C350.157+332.998+350.143+332.475+350.156+331.875C350.208+329.518+350.783+327.271+351.469+325.031C351.849+323.789+352.209+322.54+352.531+321.281C352.788+320.28+353.026+319.252+353.281+318.25C353.728+316.496+354.187+314.741+354.875+313.062C355.04+312.66+355.224+312.256+355.438+311.875Z" opacity="1"/>
</g>
<g opacity="1">
<path opacity="1" d="M461.523+367.364C456.94+368.605+457.184+376.035+456.667+380.754C456.417+383.042+455.781+385.386+456.226+387.644C456.657+389.835+457.391+392.342+459.205+393.644C461.015+394.942+463.737+395.303+465.826+394.533C468.3+393.621+470.446+391.476+471.565+389.088C473.953+383.988+472.213+378.773+469.027+374.754C466.846+372.003+464.911+366.447+461.523+367.364Z" fill="#b6ac9e"/>
<path opacity="1" fill="#000000" d="M460.469+362.156C459.387+362.373+458.532+362.987+457.812+363.719C457.084+364.053+456.85+364.111+456.094+364.844C452.006+368.799+452.259+374.981+451.656+380.188C451.465+381.838+451.101+383.46+451.031+385.125C450.941+387.282+451.277+389.416+451.938+391.469C452.616+393.574+453.692+395.588+455.344+397.094C458.564+400.029+463.565+400.839+467.625+399.375C475.607+396.497+479.436+387.467+477.344+379.531C476.772+377.362+475.808+375.319+474.594+373.438C473.99+372.501+473.26+371.653+472.656+370.719C470.703+367.694+471.555+369.203+466.312+366C466.289+365.917+466.309+365.832+466.281+365.75C465.511+363.457+463.248+362.199+460.938+362.469C460.732+362.326+460.683+362.307+460.469+362.156ZM462.375+374.281C463.15+375.535+463.913+376.797+464.812+377.969C467.053+380.888+468.678+384.793+466.094+388.062C465.488+388.829+464.54+389.739+463.5+389.781C461.921+389.846+461.783+388.98+461.406+387.531C460.969+385.85+461.298+384.321+461.531+382.625C461.59+382.195+461.64+381.744+461.688+381.312C461.791+380.363+461.833+379.577+461.906+378.625C461.955+377.998+462.001+377.297+462.062+376.656C462.137+375.878+462.224+375.062+462.375+374.281Z"/>
</g>
<g opacity="1">
<path d="M541.857+255.299C538.863+255.85+537.89+260.09+536.892+262.966C535.991+265.562+536.421+268.443+536.34+271.189C536.273+273.448+535.57+275.887+536.45+277.968C537.49+280.425+539.215+283.126+541.747+283.968C543.968+284.707+546.829+283.629+548.478+281.968C551.606+278.818+552.287+264.178+549.582+260.633C547.684+258.145+544.935+254.733+541.857+255.299Z" opacity="1" fill="#b6ac9e"/>
<path d="M541.156+250.031C540.062+250.179+539.14+250.722+538.375+251.406C537.852+251.59+537.689+251.648+537+252.219C534.91+253.949+533.776+256.496+532.906+259C532.302+260.74+531.684+262.479+531.438+264.312C531.135+266.566+531.326+268.83+531.281+271.094C531.259+272.208+531.015+273.324+530.969+274.438C530.891+276.28+531.059+277.931+531.656+279.688C532.068+280.898+532.728+282.076+533.406+283.156C536.413+287.946+541.281+290.553+546.906+288.781C549.084+288.096+551.165+286.837+552.656+285.094C554.361+283.1+555.16+280.426+555.688+277.906C556.452+274.25+556.707+270.413+556.469+266.688C556.299+264.022+555.845+265.126+546.812+255.906C546.885+255.327+546.893+254.727+546.75+254.125C546.174+251.698+543.909+250.209+541.5+250.375C541.357+250.22+541.302+250.19+541.156+250.031ZM542.875+261.125C543.819+261.898+544.606+262.88+545.344+263.812C545.349+263.824+545.341+263.835+545.344+263.844C545.354+263.871+545.367+263.91+545.375+263.938C545.428+264.116+545.486+264.288+545.531+264.469C545.632+264.875+545.692+265.338+545.75+265.75C545.957+267.222+546.026+268.734+546+270.219C545.958+272.655+545.736+275.163+545+277.5C544.894+277.836+544.775+278.151+544.625+278.469C544.6+278.489+544.557+278.512+544.531+278.531C544.233+278.75+543.919+278.903+543.562+279C543.552+279.003+543.386+279.047+543.312+279.062C543.245+279.036+543.177+278.977+543.125+278.938C542.982+278.83+542.874+278.757+542.75+278.625C542.378+278.23+542.085+277.781+541.812+277.312C541.568+276.892+541.243+276.388+541.125+275.906C540.945+275.174+541.175+274.179+541.25+273.438C541.422+271.736+541.405+270.054+541.375+268.344C541.353+267.066+541.285+265.732+541.688+264.5C542.057+263.37+542.416+262.223+542.875+261.125Z" opacity="1" fill="#000000"/>
</g>
<g opacity="1">
<path fill="#b6ac9e" opacity="1" d="M573.252+314.749C570.296+318.014+570.243+323.137+569.886+327.527C569.578+331.319+572.534+338.295+577.059+339.084C579.236+339.463+581.85+338.219+583.128+336.417C584.58+334.371+583.998+331.47+584.232+328.972C584.477+326.351+585.111+323.657+584.563+321.082C584.081+318.816+583.274+316.103+581.252+314.971C578.925+313.667+575.042+312.771+573.252+314.749Z"/>
<path d="M572.844+309.75C571.804+309.833+570.858+310.318+570.031+311.031C569.799+311.009+569.74+311.024+569.5+311C568.794+311.705+568.414+312.567+568.188+313.469C567.94+313.799+567.247+314.729+566.906+315.531C565.811+318.111+565.382+320.916+565.125+323.688C564.968+325.375+564.76+327.115+564.844+328.812C564.968+331.332+565.713+333.834+566.812+336.094C568.184+338.915+570.224+341.529+573.031+343.031C577.909+345.641+584.081+343.858+587.312+339.5C589.492+336.561+589.224+333.319+589.406+329.875C589.514+327.845+589.99+325.852+590.031+323.812C590.108+320.065+589.093+315.671+586.656+312.719C584.341+309.914+585.212+311.512+576.875+311.375C576.742+311.232+576.652+311.067+576.5+310.938C575.443+310.037+574.126+309.648+572.844+309.75ZM576.812+318.938C576.834+318.941+576.853+318.934+576.875+318.938C577.265+319.006+577.632+319.136+578+319.281C578.173+319.349+578.332+319.453+578.5+319.531C578.836+320.048+579.032+320.663+579.188+321.25C579.961+324.18+578.979+327.187+578.938+330.156C578.922+331.276+579.018+332.425+578.812+333.531C578.751+333.588+578.656+333.643+578.594+333.688C578.404+333.822+578.164+333.973+577.938+334.031C577.766+334.075+577.093+333.389+577+333.281C576.368+332.553+575.886+331.674+575.531+330.781C574.782+328.898+574.946+327.672+575.094+325.656C575.189+324.354+575.484+323.85+576.812+318.938Z" fill="#000000" opacity="1"/>
</g>
<g opacity="1">
<path fill="#b6ac9e" d="M701.258+287.135C696.361+292.336+695.088+300.096+693.147+306.97C690.568+316.102+695.807+326.572+706.61+324.638C709.206+324.174+711.932+322.934+713.562+320.86C717.304+316.1+713.615+301.746+711.906+296.414C711.187+294.169+711.035+291.406+709.258+289.858C707.134+288.007+703.189+285.084+701.258+287.135Z" opacity="1"/>
<path d="M701+282.125C699.982+282.18+699.021+282.619+698.188+283.281C697.955+283.258+697.899+283.276+697.656+283.25C696.95+283.904+696.517+284.705+696.25+285.562C695.393+286.668+694.467+287.757+693.75+289.094C691.548+293.198+690.368+297.711+689.188+302.188C688.631+304.299+687.962+306.426+687.656+308.594C687.174+312.017+687.489+315.553+688.656+318.812C690.018+322.615+692.588+325.967+696.125+327.969C702.851+331.774+712.723+330.226+717.625+324.125C719.996+321.174+720.46+317.158+720.406+313.5C720.322+307.734+719.051+301.953+717.438+296.438C717.197+295.615+716.925+294.801+716.719+293.969C716.181+291.803+715.697+289.622+714.406+287.75C713.569+286.535+712.47+285.584+711.312+284.688C708.971+282.873+710.112+283.788+704.875+283.719C704.781+283.619+704.729+283.5+704.625+283.406C703.592+282.479+702.285+282.056+701+282.125ZM703.875+292.375C704.376+292.708+704.848+293.088+705.312+293.469C705.438+293.571+705.562+293.679+705.688+293.781C705.567+293.599+705.892+294.358+705.906+294.406C706.054+294.898+706.16+295.407+706.281+295.906C706.636+297.369+707.122+298.772+707.531+300.219C708.68+304.279+709.658+308.496+709.906+312.719C709.96+313.636+709.957+314.552+709.906+315.469C709.789+317.571+709.379+318.289+707.344+319.094C706.815+319.303+706.246+319.458+705.688+319.562C705.028+319.686+704.359+319.749+703.688+319.719C699.156+319.518+697.32+314.799+697.594+310.781C697.734+308.722+698.455+306.734+698.969+304.75C699.246+303.68+699.579+302.349+699.875+301.281C700.318+299.683+700.804+298.109+701.406+296.562C701.825+295.486+702.834+294.005+703.875+292.375Z" opacity="1" fill="#000000"/>
</g>
<g opacity="1">
<path d="M647.628+366.308C643.843+369.69+643.196+375.79+643.159+380.865C643.136+383.926+644.992+387.17+647.462+388.977C649.805+390.691+653.411+391.477+656.069+390.311C658.578+389.21+659.566+385.927+660.373+383.31C661.127+380.867+661.005+378.166+660.594+375.643C660.145+372.893+660.096+369.381+657.835+367.753C655.046+365.745+650.19+364.019+647.628+366.308Z" fill="#b6ac9e" opacity="1"/>
<path d="M647.75+361.281C646.704+361.255+645.679+361.623+644.781+362.25C644.515+362.202+644.587+362.237+644.312+362.188C643.56+362.793+643.075+363.566+642.75+364.406C642.49+364.68+641.728+365.491+641.312+366.188C639.201+369.73+638.444+373.907+638.188+377.969C637.994+381.033+638.132+383.908+639.406+386.75C640.675+389.58+642.762+392.11+645.406+393.75C650.286+396.777+657.554+397.117+661.594+392.5C663.171+390.697+664.147+388.53+664.906+386.281C665.65+384.077+666.122+381.898+666.156+379.562C666.186+377.523+665.887+375.515+665.625+373.5C665.265+370.73+664.772+367.897+663.062+365.594C662.197+364.427+659.985+364.511+651.562+363.281C651.455+363.141+651.406+362.975+651.281+362.844C650.324+361.838+649.036+361.313+647.75+361.281ZM650.75+370.594C652.135+370.558+653.399+371.246+654.562+371.938C654.707+372.288+654.801+372.658+654.875+373.031C655.25+374.936+655.592+377.056+655.656+379C655.696+380.193+655.535+381.269+655.188+382.406C654.855+383.495+654.514+384.627+653.844+385.562C651.606+386.241+649.194+384.186+648.469+382.219C648.041+381.057+648.214+379.771+648.281+378.562C648.366+377.051+648.534+375.569+648.875+374.094C649.083+373.193+649.481+372.857+650.75+370.594Z" opacity="1" fill="#000000"/>
</g>
<g opacity="1">
<path d="M649.338+258.91C646.044+259.663+644.605+264+643.49+267.189C642.56+269.846+643.367+272.822+643.49+275.634C643.588+277.902+643.438+280.257+644.152+282.412C644.871+284.585+645.573+287.414+647.683+288.302C650.338+289.42+653.68+288.744+656.29+287.524C664.699+283.595+665.161+269.565+659.049+263.633C656.466+261.126+652.847+258.109+649.338+258.91Z" opacity="1" fill="#b6ac9e"/>
<path d="M648.375+253.688C647.278+253.892+646.389+254.484+645.656+255.219C645.516+255.285+644.81+255.527+644.406+255.844C641.881+257.825+640.467+260.843+639.375+263.781C638.759+265.44+638.208+267.068+638.062+268.844C637.868+271.215+638.318+273.545+638.438+275.906C638.52+277.538+638.461+279.186+638.656+280.812C638.835+282.305+639.23+283.701+639.688+285.125C640.593+287.944+641.862+290.733+644.469+292.375C645.565+293.066+646.83+293.496+648.094+293.75C649.587+294.05+651.116+294.081+652.625+293.906C654.332+293.709+656.003+293.24+657.594+292.594C669.587+287.725+671.695+270.336+663.812+261C661.554+258.325+662.492+259.836+653.344+255.875C652.347+254.558+650.744+253.907+649.062+254C648.765+253.861+648.687+253.835+648.375+253.688ZM650.312+264.125C651.04+264.202+650.669+264.093+651.031+264.219C651.301+264.313+651.638+264.487+651.875+264.625C652.933+265.24+653.887+266.045+654.781+266.875C657.47+269.371+658.29+273.143+657.781+276.719C657.448+279.065+656.369+281.732+654.094+282.812C653.116+283.277+652.054+283.642+650.969+283.719C650.656+283.741+650.341+283.737+650.031+283.688C650.016+283.658+650.015+283.624+650+283.594C649.951+283.493+649.888+283.384+649.844+283.281C649.656+282.846+649.494+282.418+649.344+281.969C648.988+280.902+648.725+279.882+648.656+278.75C648.555+277.079+648.562+275.42+648.406+273.75C648.262+272.201+647.758+270.302+648.281+268.75C648.686+267.551+649.089+266.321+649.656+265.188C649.841+264.819+650.068+264.458+650.312+264.125Z" opacity="1" fill="#000000"/>
</g>
<g opacity="1">
<path fill="#b6ac9e" d="M474.875+292.691C471.444+295.951+471.631+301.698+471.233+306.415C470.989+309.316+471.316+312.594+472.999+314.971C474.456+317.028+477.211+318.482+479.73+318.416C482.081+318.354+484.12+316.389+485.689+314.637C490.947+308.769+489.759+299.422+482.931+295.302C480.514+293.844+476.922+290.747+474.875+292.691Z" opacity="1"/>
<path opacity="1" d="M478.562+287C477.015+286.631+476.642+287.015+474.406+287.75C473.795+287.807+473.217+287.971+472.656+288.25C472.083+288.399+472.246+288.419+471.469+288.594C470.682+289.248+470.24+290.127+469.938+291.031C469.729+291.269+469.036+292.067+468.688+292.75C466.775+296.498+466.581+300.762+466.281+304.875C466.006+308.645+466.04+312.374+467.688+315.875C470.16+321.129+476.487+324.783+482.281+323.188C485.574+322.281+488.386+319.71+490.438+317.062C496.614+309.091+495.025+297.443+486.812+291.531C486.083+291.006+485.311+290.56+484.562+290.062C482.692+288.82+480.779+287.528+478.562+287ZM477.594+298.125C478.218+298.52+478.816+298.944+479.438+299.344C480.007+299.71+480.604+300.064+481.125+300.5C482.494+301.646+483.367+303.27+483.625+305.031C483.958+307.307+483.226+309.516+481.75+311.25C481.293+311.787+480.793+312.299+480.25+312.75C480.103+312.872+479.942+313.018+479.781+313.125C479.693+313.184+479.48+313.21+479.5+313.281C479.266+313.273+479.039+313.227+478.812+313.156C478.461+313.046+478.114+312.867+477.812+312.656C476.923+312.034+476.563+311.039+476.375+310C476.035+308.125+476.319+306.193+476.438+304.312C476.54+302.677+476.634+301.046+476.969+299.438C477.038+299.106+477.5+298.301+477.594+298.125Z" fill="#000000"/>
</g>
<g opacity="1">
<path fill="#b6ac9e" opacity="1" d="M387.368+388.421C384.461+390.412+384.525+394.947+383.947+398.422C383.478+401.238+383.257+404.313+384.278+406.979C385.349+409.775+387.441+412.28+389.906+413.979C391.765+415.261+394.34+415.99+396.527+415.424C404.756+413.293+402.817+400.884+401.051+395.422C400.308+393.124+399.891+390.077+397.741+388.977C394.658+387.4+390.225+386.465+387.368+388.421Z"/>
<path opacity="1" d="M394.312+382.719C393.557+382.862+390.519+383.188+388.219+383.469C387.344+383.32+386.446+383.487+385.594+383.812C385.012+383.867+385.197+383.881+384.531+383.938C383.636+384.503+383.04+385.325+382.625+386.219C382.51+386.333+381.937+386.839+381.656+387.281C379.834+390.156+379.557+393.559+379.094+396.844C378.899+398.227+378.654+399.603+378.562+401C378.317+404.75+378.999+408.331+380.906+411.594C384.895+418.416+393.242+423.465+400.906+419.188C401.848+418.662+402.731+418.005+403.5+417.25C409.438+411.416+408.301+401.11+406.094+393.875C405.365+391.486+404.85+389.008+403.312+386.969C401.695+384.824+399.29+383.689+396.781+382.906C395.503+382.507+395.526+382.489+394.312+382.719ZM391.062+392.625C391.333+392.6+391.674+392.63+391.938+392.656C393.036+392.767+393.966+393.191+394.969+393.562C394.986+393.604+394.984+393.645+395+393.688C395.047+393.809+395.083+393.939+395.125+394.062C395.233+394.382+395.345+394.74+395.438+395.062C395.684+395.923+395.963+396.767+396.219+397.625C397.152+400.751+397.794+404.379+397.156+407.625C396.929+408.784+396.527+410.041+395.281+410.406C393.969+410.792+392.468+409.606+391.594+408.812C389.357+406.782+388.451+404.617+388.625+401.625C388.691+400.487+388.907+399.346+389.062+398.219C389.255+396.825+389.271+397.258+390.281+392.875C390.931+392.658+390.864+392.644+391.062+392.625Z" fill="#000000"/>
</g>
</g>
</svg>
