<?xml version="1.0" encoding="UTF-8" standalone="no"?> <!-- Created with Vectornator for iOS (http://vectornator.io/) --><!DOCTYPE svg PUBLIC "-//W3C//DTD SVG 1.1//EN" "http://www.w3.org/Graphics/SVG/1.1/DTD/svg11.dtd">
<svg version="1.1" height="100%" viewBox="0 0 1366 1024" width="100%" xml:space="preserve" xmlns:xlink="http://www.w3.org/1999/xlink" style="fill-rule:nonzero;clip-rule:evenodd;stroke-linecap:round;stroke-linejoin:round;" xmlns="http://www.w3.org/2000/svg" xmlns:vectornator="http://vectornator.io">
<metadata>
<vectornator:setting value="true" key="WDRulersVisible"/>
<vectornator:setting key="WDCMYKEnabledKey" value="false"/>
<vectornator:setting key="WDSnapToEdges" value="false"/>
<vectornator:setting value="false" key="WDSnapToGrid"/>
<vectornator:setting value="false" key="VNPencilOnly"/>
<vectornator:setting key="WDUnits" value="Points"/>
<vectornator:setting key="UndoHistoryDisabled" value="false"/>
<vectornator:setting key="WDDisplayWhiteBackground" value="false"/>
<vectornator:setting key="WDOutlineMode" value="false"/>
<vectornator:setting key="WDIsolateActiveLayer" value="false"/>
<vectornator:setting value="false" key="WDSnapToPoints"/>
<vectornator:setting value="true" key="VNDimensionsVisible"/>
<vectornator:setting value="true" key="WDGuidesVisible"/>
<vectornator:setting value="false" key="IsTimeLapseWatermarkDisabled"/>
<vectornator:setting value="true" key="VNSnapToGuides"/>
<vectornator:setting value="false" key="WDDynamicGuides"/>
</metadata>
<defs>
<radialGradient cx="1230.52" r="0" gradientUnits="userSpaceOnUse" gradientTransform="matrix(1 0 0 1 0 0)" cy="626.321" id="RadialGradient">
<stop offset="0" stop-color="#9e8363"/>
<stop offset="1" stop-color="#693719"/>
</radialGradient>
<radialGradient r="0" cy="627.725" id="RadialGradient_2" gradientTransform="matrix(1 0 0 1 0 0)" gradientUnits="userSpaceOnUse" cx="1328.05">
<stop stop-color="#9e8363" offset="0" stop-opacity="0"/>
<stop offset="1" stop-color="#693719"/>
</radialGradient>
</defs>
<g id="Layer 1" vectornator:layerName="Layer 1">
<g opacity="1">
<path fill="#b2a8a5" d="M270.911+556.396C258.507+580.798+273.618+610.449+276.869+637.459C278.178+648.331+278.233+659.299+279.252+670.192C281.06+689.519+285.629+709.28+292.503+727.402C298.316+742.731+304.89+759.072+318.145+769.542C330.486+779.291+344.711+783.96+359.42+788.74C398.656+801.491+439.056+790.752+478.958+787.012C498.714+785.161+518.533+784.406+538.25+782.117C561.771+779.387+585.588+776.371+609.266+775.206C631.887+774.092+654.8+775.809+677.424+774.438C690.515+773.644+697.438+771.641+710.692+770.502C717.595+769.909+724.553+770.374+731.473+770.022C751.554+769.001+771.505+767.429+791.622+766.855C800.32+766.606+808.729+767.693+817.455+767.239C829.951+766.588+842.417+764.628+854.918+763.783C865.022+763.1+875.124+763.905+885.231+763.687C896.372+763.447+907.361+761.43+918.5+760.807C930.872+760.115+942.336+760.216+954.723+761.575C960.162+762.172+966.135+763.647+971.691+763.495C979.107+763.292+980.826+760.934+988.373+757.543C998.057+753.192+1008.18+750.392+1017.54+745.257C1036.17+735.038+1038.02+720.933+1047.28+703.981C1058.24+683.919+1071.28+664.496+1078.26+642.451C1082.7+628.448+1085.77+613.872+1088.56+599.543C1090.06+591.825+1091.02+583.798+1092.66+576.122C1093.24+573.38+1094.96+570.86+1095.04+568.058C1095.28+560.001+1090.29+551.303+1083.79+547.036C1078.71+543.698+1072.3+543.025+1066.44+541.373C1059.77+539.49+1051.93+536.972+1045.19+535.998C1030.51+533.877+1014.9+536.023+1000.1+535.326C948.875+532.911+897.744+529.283+846.529+526.686C829.955+525.846+813.36+524.623+796.77+525.055C780.68+525.473+764.62+526.677+748.536+527.262C707.504+528.756+666.546+528.097+625.567+531.294C599.678+533.314+574.014+536.9+548.163+539.069C510.338+542.243+472.344+540.857+434.536+543.965C405.779+546.329+376.853+548.362+348.172+551.452C333.822+552.998+319.694+556.148+305.276+557.115C293.745+557.89+276.104+546.181+270.911+556.396Z" opacity="1"/>
<path opacity="1" fill="#000000" d="M809.312+519.75C795.987+519.535+782.645+520.294+769.344+521C758.937+521.552+748.542+522.01+738.125+522.312C707.348+523.206+676.538+523.155+645.781+524.719C634.548+525.29+623.322+526.092+612.125+527.156C590.63+529.199+569.233+531.922+547.719+533.781C526.574+535.608+505.299+535.911+484.094+536.438C473.787+536.693+463.485+536.907+453.188+537.438C435.408+538.353+417.649+540.002+399.906+541.438C388.479+542.362+377.072+543.325+365.656+544.375C358.418+545.041+351.151+545.699+343.938+546.594C334.983+547.704+326.106+549.393+317.156+550.531C314.237+550.903+311.337+551.239+308.406+551.5C306.033+551.711+303.798+551.959+301.438+551.625C294.927+550.702+298.369+551.476+274.75+553.188C274.307+552.658+273.755+552.195+273.094+551.875C270.768+550.748+268.067+551.647+266.719+553.781C266.522+553.794+266.481+553.8+266.281+553.812C265.898+554.503+265.681+555.261+265.625+556C264.672+558.2+264.135+559.283+263.562+561.062C262.446+564.533+261.743+568.126+261.375+571.75C260.644+578.941+261.268+586.203+262.438+593.312C264.559+606.203+268.628+618.676+270.906+631.531C273.485+646.086+273.036+660.972+274.75+675.625C276.407+689.786+279.439+703.806+283.719+717.406C285.595+723.37+287.772+729.216+290.062+735.031C294.866+747.224+300.583+759.465+309.906+768.906C317.659+776.757+327.602+782.223+337.719+786.406C342.519+788.391+347.416+790.083+352.344+791.719C356.716+793.17+361.094+794.622+365.562+795.75C372.302+797.452+379.172+798.562+386.094+799.188C409.012+801.257+431.945+798.013+454.625+795C468.179+793.2+481.737+791.74+495.375+790.75C509.863+789.698+524.372+788.765+538.812+787.156C560.407+784.751+581.957+781.919+603.656+780.594C613.08+780.018+622.498+779.832+631.938+779.875C647.744+779.947+663.591+780.514+679.375+779.406C690.021+778.659+700.498+776.491+711.125+775.562C716.773+775.069+722.464+775.339+728.125+775.219C731.849+775.139+735.563+774.897+739.281+774.688C751.791+773.983+764.298+773.169+776.812+772.562C782.475+772.288+788.143+771.94+793.812+771.906C801.776+771.858+809.72+772.711+817.688+772.344C831.062+771.727+844.314+769.357+857.688+768.75C868.836+768.244+879.98+769.304+891.125+768.562C898.568+768.068+905.947+766.959+913.375+766.312C917.66+765.94+921.982+765.744+926.281+765.625C935.988+765.357+945.799+765.584+955.438+766.844C963.791+767.935+972.505+770.147+980.688+767C983.257+766.012+985.633+764.596+988.094+763.375C990.79+762.038+993.577+760.884+996.375+759.781C1007.97+755.211+1020.29+751.369+1029.81+742.969C1033.55+739.675+1036.71+735.8+1039.31+731.562C1043.82+724.232+1046.78+716.083+1050.75+708.469C1054.62+701.036+1058.97+693.868+1063.12+686.594C1070.42+673.833+1077.51+660.825+1082.28+646.875C1085.23+638.245+1087.47+629.354+1089.5+620.469C1091.31+612.54+1093.01+604.575+1094.41+596.562C1095.09+592.638+1095.68+588.677+1096.34+584.75C1096.79+582.146+1097.13+579.353+1097.84+576.812C1098.27+575.285+1099+573.859+1099.47+572.344C1099.86+571.065+1100.15+569.74+1100.25+568.406C1100.41+566.239+1100.09+563.989+1099.62+561.875C1098.29+555.777+1095.02+550.015+1090.5+545.719C1087.49+542.862+1083.94+540.875+1080.03+539.531C1076.5+538.318+1072.83+537.647+1069.22+536.719C1064.57+535.522+1060+534.021+1055.34+532.812C1049.67+531.338+1043.95+530.387+1038.09+530.031C1026.7+529.34+1015.3+530.445+1003.91+530.219C995.789+530.057+987.669+529.489+979.562+529.062C965.175+528.306+950.788+527.449+936.406+526.594C908.674+524.945+880.961+523.271+853.219+521.781C838.592+520.996+823.961+519.986+809.312+519.75ZM809.125+530.281C823.642+530.51+838.161+531.508+852.656+532.281C877.711+533.617+902.735+535.103+927.781+536.594C944.853+537.61+961.953+538.608+979.031+539.5C984.371+539.779+989.69+540.052+995.031+540.312C999.208+540.516+1003.38+540.731+1007.56+540.719C1019.26+540.684+1031.06+539.533+1042.72+540.938C1050.35+541.857+1057.68+544.362+1065.06+546.406C1068.04+547.232+1071.08+547.826+1074.06+548.625C1076.27+549.216+1078.5+549.908+1080.47+551.094C1084.58+553.567+1087.62+557.994+1089.03+562.531C1089.54+564.168+1089.94+565.993+1089.84+567.719C1089.74+569.606+1088.67+571.38+1088.09+573.156C1087.47+575.064+1087.15+577.064+1086.78+579.031C1085.34+586.714+1084.27+594.455+1082.75+602.125C1080.99+611.05+1079.09+619.947+1076.78+628.75C1074.78+636.399+1072.51+643.964+1069.5+651.281C1062.45+668.395+1052.42+684.078+1043.47+700.219C1040.81+705.013+1038.5+709.956+1036.22+714.938C1033.1+721.747+1029.79+728.63+1024.38+733.938C1020.99+737.253+1017.05+739.711+1012.84+741.844C1005.1+745.772+996.762+748.365+988.781+751.75C986.458+752.735+984.178+753.777+981.938+754.938C980.038+755.921+978.18+757.049+976.125+757.688C974.893+758.07+973.597+758.239+972.312+758.312C967.092+758.61+961.894+757.324+956.75+756.656C949.106+755.663+941.36+755.282+933.656+755.25C926.603+755.22+919.527+755.479+912.5+756.094C904.256+756.815+896.055+758.092+887.781+758.469C877.595+758.933+867.406+758.064+857.219+758.531C843.841+759.145+830.596+761.497+817.219+762.125C808.636+762.528+800.053+761.515+791.469+761.75C771.772+762.29+752.141+763.828+732.469+764.875C725.687+765.236+718.872+764.882+712.094+765.312C700.374+766.056+688.886+768.74+677.156+769.375C657.33+770.448+637.492+769.403+617.656+769.844C598.811+770.262+580+772.235+561.281+774.344C546.892+775.965+532.531+777.815+518.094+778.969C501.518+780.293+484.931+781.151+468.406+783.062C440.654+786.273+412.663+791.945+384.625+788.906C379.035+788.3+373.484+787.344+368.031+785.969C361.983+784.443+356.04+782.4+350.156+780.344C339.381+776.578+328.552+771.889+319.812+764.375C309.289+755.327+303.566+742.086+298.656+729.438C291.782+711.728+286.961+693.324+284.75+674.438C283.011+659.582+283.397+644.542+280.781+629.781C277.954+613.825+272.183+598.227+271.25+581.969C270.911+576.056+271.268+581.583+275.312+559.25C275.383+559.142+275.499+559.083+275.562+558.969C276.459+557.881+276.037+558.092+276.438+557.875C277.802+557.134+280.244+557.547+281.656+557.781C282.11+557.857+282.581+557.968+283.031+558.062C285.718+558.624+288.355+559.4+291+560.125C294.849+561.179+298.777+562.227+302.781+562.438C305.577+562.585+308.345+562.186+311.125+561.938C315.417+561.554+319.708+560.917+323.969+560.281C331.058+559.223+338.136+558.008+345.25+557.125C352.95+556.17+360.68+555.493+368.406+554.781C380.384+553.678+392.386+552.659+404.375+551.688C420.814+550.355+437.245+548.882+453.719+548.031C463.922+547.505+474.162+547.255+484.375+547C505.798+546.466+527.264+546.191+548.625+544.344C570.169+542.481+591.6+539.736+613.125+537.688C624.168+536.637+635.234+535.846+646.312+535.281C676.992+533.718+707.737+533.77+738.438+532.875C749.275+532.559+760.111+532.046+770.938+531.469C783.661+530.79+796.378+530.08+809.125+530.281Z"/>
</g>
<g opacity="1">
<path fill="#e75216" d="M352.557+542.525C352.811+537.021+351.396+531.177+353.32+526.015C356.094+518.57+359.519+510.27+366.189+505.953C371.177+502.723+378.084+505.773+384.014+506.145C395.969+506.894+408.556+514.102+420.047+506.241C429.031+500.094+434.332+486.156+431.2+475.62C429.921+471.317+426.287+465.521+429.389+462.277C430.85+460.749+433.447+461.094+435.49+460.549C437.642+459.974+439.795+459.395+441.972+458.917C444.754+458.307+447.559+456.769+450.36+457.285C452.523+457.684+454.151+459.682+455.508+461.413C457.546+464.013+458.518+467.315+460.369+470.052C463.073+474.049+466.9+477.488+468.472+482.051C471.539+490.959+468.727+500.354+472.285+509.216C473.768+512.91+477.845+518.404+480.959+520.831C484.402+523.514+489.317+524.716+491.636+528.414C493.199+530.908+494.943+538.475+495.735+541.565" opacity="1"/>
<path d="M449.75+451.969C447.079+451.882+444.482+452.743+441.875+453.531C440.055+454.082+438.152+454.454+436.312+454.938C435.525+455.144+434.736+455.402+433.938+455.562C433.095+455.732+432.254+455.766+431.406+455.906C429.709+456.188+428.041+456.732+426.656+457.781C425.66+458.537+424.831+459.504+424.219+460.594C422.042+464.467+423.158+468.894+424.625+472.781C425.287+474.535+426.074+476.26+426.5+478.094C428.454+486.509+424.125+497.132+417.125+502.062C410.34+506.842+401.55+504.215+394.156+502.625C392.025+502.167+389.879+501.735+387.719+501.438C385.749+501.167+383.744+501.1+381.781+500.781C376.395+499.907+370.778+498.374+365.5+500.625C360.855+502.605+357.072+507.092+354.5+511.312C352.028+515.37+350.093+519.88+348.562+524.375C347.813+526.575+347.427+528.805+347.312+531.125C347.126+534.888+347.624+538.642+347.531+542.406C347.464+545.182+349.662+547.495+352.438+547.562C355.213+547.63+357.527+545.432+357.594+542.656C357.652+540.203+357.487+537.762+357.375+535.312C357.257+532.727+357.196+530.13+358.062+527.656C359.726+522.911+361.858+517.727+365.031+513.781C366.131+512.414+367.785+510.592+369.438+509.906C371.283+509.141+373.587+509.594+375.469+509.906C377.614+510.262+379.746+510.768+381.906+511.031C384.317+511.325+386.701+511.483+389.094+511.938C394.337+512.934+399.504+514.423+404.844+514.844C411.86+515.396+418.678+513.833+424.281+509.469C433.068+502.626+438.195+490.265+437.125+479.219C436.936+477.265+436.543+475.336+435.938+473.469C435.348+471.65+434.548+469.904+433.938+468.094C433.747+467.529+433.553+466.962+433.438+466.375C433.423+466.299+433.419+466.207+433.406+466.125C433.573+466.104+433.727+466.087+433.938+466.062C434.893+465.951+435.846+465.827+436.781+465.594C438.207+465.238+439.603+464.846+441.031+464.5C442.305+464.191+443.586+463.934+444.844+463.562C446.316+463.128+447.822+462.43+449.375+462.438C449.396+462.448+449.394+462.46+449.406+462.469C449.52+462.549+449.616+462.656+449.719+462.75C449.985+462.994+450.234+463.258+450.469+463.531C451.305+464.504+452.027+465.52+452.625+466.656C453.731+468.757+454.672+470.906+455.969+472.906C457.165+474.75+458.605+476.438+459.969+478.156C461.347+479.893+462.761+481.694+463.5+483.812C464.84+487.655+464.769+491.831+464.906+495.844C464.99+498.295+465.133+500.691+465.438+503.125C465.55+504.025+465.594+504.956+465.781+505.844C466.047+507.106+466.506+508.356+466.875+509.594C467.098+510.341+467.319+511.095+467.625+511.812C468.859+514.709+470.737+517.395+472.688+519.844C474.484+522.1+476.482+524.245+478.875+525.875C480.541+527.009+482.344+527.854+484.094+528.844C485.058+529.389+486.204+529.986+486.906+530.875C487.034+531.037+487.133+531.237+487.25+531.406C487.34+531.734+487.546+532.145+487.656+532.438C487.976+533.286+488.271+534.132+488.531+535C489.307+537.592+489.937+540.22+490.594+542.844C491.307+545.688+494.187+547.432+497.031+546.719C499.876+546.005+501.588+543.126+500.875+540.281C500.062+537.047+499.279+533.8+498.25+530.625C497.51+528.342+496.67+526.063+495.125+524.188C493.539+522.261+491.495+520.846+489.344+519.625C487.846+518.775+486.244+518.058+484.812+517.094C483.307+516.079+482.092+514.659+480.969+513.25C479.73+511.695+478.563+510.054+477.656+508.281C477.198+507.384+476.977+506.442+476.688+505.469C476.507+504.861+476.257+504.276+476.125+503.656C475.997+503.054+475.983+502.423+475.906+501.812C475.732+500.432+475.622+499.109+475.562+497.719C475.354+492.813+475.418+487.834+474.25+483.031C473.532+480.078+472.352+477.397+470.656+474.875C468.856+472.197+466.548+469.883+464.781+467.188C463.652+465.465+462.87+463.563+461.906+461.75C459.893+457.965+456.717+453.721+452.438+452.406C451.526+452.126+450.64+451.998+449.75+451.969Z" fill="#000000" opacity="1"/>
</g>
<g opacity="1">
<path fill="#e75216" opacity="1" d="M489.729+540.221C480.888+539.331+470.561+539.587+461.704+540.317C456.963+540.708+452.541+542.908+447.882+543.869C437.889+545.929+422.817+547.867+412.612+547.132C403.288+546.462+394.367+542.426+384.967+542.141C383.017+542.082+381.103+542.855+379.153+542.813C370.213+542.619+367.749+540.643+358.848+543.677"/>
<path d="M479.875+534.656C476.436+534.591+472.975+534.642+469.531+534.781C466.302+534.912+463.016+534.989+459.812+535.438C455.331+536.065+451.183+537.948+446.781+538.906C442.197+539.905+437.501+540.547+432.844+541.094C427.492+541.722+422.079+542.166+416.688+542.094C413.693+542.053+410.752+541.76+407.812+541.188C401.963+540.047+396.259+538.125+390.344+537.312C389.106+537.142+387.839+537.078+386.594+536.969C385.558+536.878+384.568+536.818+383.531+536.906C382.068+537.031+380.624+537.546+379.156+537.531C375.265+537.493+371.393+536.651+367.5+536.688C363.935+536.721+360.555+537.524+357.188+538.625C354.401+539.54+352.898+542.558+353.812+545.344C354.727+548.13+357.714+549.633+360.5+548.719C362.457+548.073+364.436+547.51+366.5+547.344C369.895+547.07+373.364+547.846+376.75+548.031C378.493+548.127+380.176+548.141+381.906+547.875C382.693+547.754+383.855+547.342+384.656+547.406C386.074+547.521+387.497+547.591+388.906+547.781C394.205+548.497+399.367+550.166+404.594+551.25C408.557+552.072+412.546+552.476+416.594+552.5C422.972+552.539+429.371+551.937+435.688+551.094C440.135+550.5+444.589+549.831+448.969+548.844C451.064+548.371+453.113+547.72+455.156+547.062C457.142+546.423+459.146+545.763+461.219+545.469C464.096+545.06+467.069+544.971+469.969+544.844C476.413+544.56+482.856+544.646+489.281+545.219C492.047+545.467+494.502+543.422+494.75+540.656C494.998+537.891+492.953+535.467+490.188+535.219C486.754+534.91+483.314+534.721+479.875+534.656Z" fill="#000000" opacity="1"/>
</g>
<g opacity="1">
<path d="M505.172+525.679C509.988+513.496+512.123+500.217+518.136+488.578C524.693+475.887+532.585+463.595+542.539+453.35C547.368+448.379+554.646+446.415+561.223+444.231C565.43+442.834+573.24+445.012+576.761+447.302C587.628+454.373+582.745+471.541+580.288+481.763C578.983+487.192+578.187+492.787+578.095+498.369C578.021+502.851+578.595+510.798+577.142+515.552C575.39+521.285+570.023+526.758+566.18+531.102C563.43+534.21+560.043+538.615+555.694+539.837C551.449+541.03+547.022+538.167+542.634+537.725C540.622+537.523+538.646+538.444+536.629+538.589C534.779+538.722+525.672+538.414+524.046+538.685C521.306+539.142+513.636+542.33+510.51+542.429C507.657+542.519+501.148+540.939+500.215+537.245C499.372+533.91+504.096+528.399+505.172+525.679Z" opacity="1" fill="#5ac56a"/>
<path opacity="1" fill="#000000" d="M566.438+438.75C565.085+438.636+563.709+438.66+562.375+438.812C560.27+439.054+558.311+439.808+556.312+440.469C553.939+441.253+551.587+442.095+549.281+443.062C546.458+444.247+543.715+445.749+541.312+447.656C539.486+449.106+537.907+450.809+536.344+452.531C534.254+454.834+532.287+457.236+530.375+459.688C525.809+465.54+521.754+471.783+518.062+478.219C515.961+481.883+513.875+485.589+512.125+489.438C510.465+493.088+509.105+496.873+507.875+500.688C506.423+505.191+507.141+502.997+500.812+522.844C500.669+523.063+500.456+523.224+500.344+523.469C499.287+525.411+499.645+524.808+499.281+525.406C498.887+526.054+498.418+526.791+498.031+527.438C496.062+530.735+494.072+534.575+495.062+538.531C495.864+541.732+498.369+544.068+501.219+545.531C503.169+546.533+505.339+547.16+507.5+547.5C513.325+548.417+518.735+545.603+524.219+544.094C524.332+544.063+524.417+544.029+524.531+544C524.571+543.99+524.608+543.97+524.656+543.969C527.595+543.787+530.556+543.885+533.5+543.906C534.732+543.915+535.991+543.977+537.219+543.844C538.438+543.712+539.587+543.457+540.781+543.188C541.131+543.108+541.7+542.924+542.031+542.969C544.673+543.323+547.15+544.412+549.75+544.969C553.391+545.748+556.971+545.391+560.281+543.625C564.297+541.482+567.167+537.945+570.125+534.594C575.121+528.933+580.927+523.091+582.594+515.438C583.769+510.043+583.295+504.443+583.312+498.969C583.327+494.462+583.847+489.944+584.75+485.531C585.21+483.282+585.818+481.078+586.344+478.844C586.847+476.707+587.3+474.567+587.688+472.406C589.294+463.445+589.69+452.724+582.844+445.688C579.507+442.258+575.017+440.486+570.438+439.406C569.135+439.099+567.79+438.864+566.438+438.75ZM563.531+448.938C565.46+448.733+567.497+449.174+569.344+449.688C573.499+450.844+576.546+452.677+577.75+457.031C578.955+461.391+578.329+466.206+577.531+470.562C576.379+476.853+574.483+482.936+573.594+489.281C572.986+493.619+572.855+497.973+572.906+502.344C572.951+506.214+573.175+510.363+572.094+514.125C571.728+515.399+571.04+516.601+570.344+517.719C568.899+520.038+567.117+522.114+565.312+524.156C563.329+526.402+561.381+528.709+559.344+530.906C558.035+532.318+556.567+533.844+554.75+534.594C553.132+535.262+551.217+534.471+549.656+534C547.545+533.362+545.453+532.709+543.25+532.469C540.783+532.199+538.558+533.016+536.156+533.312C533.775+533.212+531.353+533.298+528.969+533.281C526.845+533.267+524.657+533.19+522.562+533.594C519.406+534.202+516.39+535.54+513.312+536.438C512.679+536.622+512.055+536.846+511.406+536.969C510.955+537.054+510.486+537.063+510.031+537.125C509.857+537.114+509.64+537.084+509.469+537.062C509.121+537.019+508.78+536.981+508.438+536.906C507.438+536.687+506.521+536.258+505.656+535.719C505.738+535.517+505.812+535.322+505.906+535.125C506.272+534.361+505.921+535.134+510+527.906C510.306+527.24+510.448+526.533+510.469+525.844C511.235+523.754+511.616+522.732+512.156+521.094C512.857+518.969+513.514+516.83+514.156+514.688C516.138+508.072+517.959+501.359+520.688+495C522.43+490.939+524.579+487.045+526.781+483.219C531.098+475.72+535.964+468.52+541.594+461.938C543.463+459.752+545.325+457.385+547.594+455.594C549.271+454.269+551.218+453.255+553.188+452.438C555.794+451.356+558.474+450.496+561.156+449.625C561.921+449.377+562.714+449.024+563.531+448.938Z"/>
</g>
<g opacity="1">
<path fill="#5ac56a" d="M948.765+525.439C947.474+525.083+947.95+529.414+946.716+528.894C944.472+527.948+943.968+524.873+942.617+522.847C941.236+520.777+939.786+518.748+938.518+516.607C933.319+507.833+930.649+497.966+938.518+489.538C945.971+481.555+957.672+487.776+964.255+493.282C966.055+494.787+967.061+497.94+969.403+498.081C971.429+498.204+972.798+495.629+973.788+493.858C975.283+491.184+975.418+487.929+976.648+485.123C979.239+479.208+981.511+475.264+987.801+472.74C994.81+469.927+1000.81+474.901+1002.58+481.379C1003.22+483.742+1001.06+489.28+1003.43+488.674C1006.92+487.785+1007.36+482.652+1009.34+479.651C1012.71+474.545+1016.83+467.139+1024.6+469.38C1027.28+470.154+1029.45+472.18+1031.65+473.892C1033.22+475.109+1035.04+476.301+1035.84+478.115C1039.18+485.654+1036.34+494.823+1034.61+502.209C1032.39+511.656+1029.88+514.433+1026.31+522.847C1024.61+526.853+1024.41+531.949+1021.16+534.846C1016.16+539.307+1006.36+538.68+1000.1+538.973C994.378+539.241+987.218+540.617+981.605+538.973C979.007+538.213+976.688+536.7+974.169+535.71C970.251+534.169+965.877+534.13+961.872+532.83C957.101+531.281+953.601+526.77+948.765+525.439Z" opacity="1"/>
<path fill="#000000" d="M1022.44+463.812C1020.51+463.739+1018.57+464.051+1016.75+464.781C1015.63+465.229+1014.57+465.804+1013.59+466.5C1010.56+468.655+1008.36+471.734+1006.34+474.812C1006.15+475.109+1005.98+475.422+1005.78+475.719C1002.09+468.946+994.726+465.172+987.125+467.562C982.605+468.984+978.6+471.915+975.875+475.781C974.603+477.587+973.605+479.559+972.688+481.562C972.131+482.777+971.701+483.691+971.281+484.969C970.672+486.825+970.422+488.799+969.719+490.625C969.613+490.9+969.418+491.12+969.281+491.375C968.955+490.968+968.671+490.522+968.312+490.156C966.558+488.366+964.341+486.906+962.219+485.594C955.109+481.197+945.888+478.427+938.281+483.219C936.756+484.179+935.435+485.397+934.25+486.75C932.618+488.613+931.257+490.721+930.281+493C929.673+494.42+929.195+495.889+928.906+497.406C926.991+507.481+932.335+516.626+937.75+524.625C938.766+526.126+939.372+527.783+940.281+529.344C941.22+530.955+942.446+532.323+944.094+533.219C945.118+533.775+946.377+533.683+947.531+533.844C947.94+533.901+948.679+533.588+948.969+533.469C949.597+533.211+950.074+532.713+950.562+532.25C950.788+532.406+951.032+532.535+951.25+532.688C954.11+534.686+956.933+536.86+960.312+537.906C963.731+538.965+967.311+539.212+970.75+540.156C972.667+540.682+974.402+541.653+976.188+542.5C978.048+543.383+979.943+544.124+981.969+544.531C988.066+545.758+994.226+544.538+1000.34+544.25C1007.44+543.915+1015.13+544.449+1021.59+540.938C1025.21+538.976+1027.55+535.948+1028.94+532.125C1029.81+529.739+1030.22+527.194+1031.19+524.844C1033.01+520.419+1035.41+516.271+1037.16+511.812C1038.46+508.479+1039.32+505.035+1040.16+501.562C1041.01+498.021+1041.87+494.465+1042.31+490.844C1042.86+486.301+1042.76+481.577+1041.12+477.25C1040.73+476.2+1040.32+475.287+1039.69+474.344C1038.18+472.091+1035.87+470.594+1033.78+468.938C1031.98+467.505+1030.15+466.078+1028.03+465.125C1026.25+464.324+1024.36+463.886+1022.44+463.812ZM1020.94+474.312C1021.6+474.125+1022.32+474.11+1023.09+474.344C1024.7+474.831+1026.03+476.073+1027.31+477.094C1028.2+477.8+1029.12+478.48+1030+479.188C1030.34+479.457+1030.78+479.782+1031.03+480.156C1031.41+480.736+1031.59+481.588+1031.75+482.25C1032.18+484.067+1032.22+485.956+1032.09+487.812C1031.86+491.307+1031.02+494.734+1030.19+498.125C1029.56+500.672+1029.01+503.227+1028.19+505.719C1027.46+507.914+1026.53+510.012+1025.53+512.094C1024.47+514.29+1023.38+516.465+1022.38+518.688C1021.35+520.97+1020.55+523.277+1019.88+525.688C1019.24+527.961+1018.79+530.461+1016.56+531.656C1014.22+532.915+1011.35+533.179+1008.75+533.375C1005.78+533.598+1002.81+533.549+999.844+533.688C996.25+533.856+992.693+534.383+989.094+534.469C987.434+534.509+985.727+534.461+984.094+534.125C982.256+533.747+980.642+532.875+978.969+532.062C977.227+531.217+975.462+530.457+973.594+529.938C971.101+529.244+968.532+528.919+966+528.406C964.937+528.191+963.81+527.97+962.812+527.531C960.361+526.452+958.363+524.559+956.125+523.125C954.776+522.26+956.109+523.116+950.656+520.469C949.426+519.998+948.151+520.09+947+520.5C946.695+520.005+946.425+519.49+946.094+519C944.983+517.357+943.866+515.732+942.844+514.031C939.223+508.009+936.387+500.403+941.156+494.188C942.134+492.913+943.273+491.747+944.812+491.188C949.023+489.658+954.39+492.494+957.781+494.75C958.871+495.475+960.163+496.258+961.062+497.219C961.86+498.071+962.444+499.123+963.219+500C964.953+501.962+967.206+503.229+969.875+503.156C973.923+503.046+976.53+499.506+978.25+496.25C979.645+493.609+980.025+490.911+980.938+488.125C981.338+486.902+981.928+485.743+982.5+484.594C984.219+481.14+986.701+478.042+990.656+477.156C993.352+476.552+995.644+478.41+996.844+480.688C997.167+481.301+997.343+481.946+997.562+482.594C997.565+482.626+997.563+482.637+997.562+482.656C997.56+482.729+997.567+482.803+997.562+482.875C997.541+483.195+997.502+483.588+997.469+483.875C997.359+484.814+997.185+485.74+997.156+486.688C997.099+488.571+997.457+490.544+998.812+491.969C999.22+492.396+999.675+492.8+1000.19+493.094C1000.71+493.391+1001.26+493.615+1001.84+493.75C1002.37+493.872+1002.93+493.858+1003.47+493.844C1004.54+493.815+1005.65+493.42+1006.59+492.938C1009.38+491.509+1010.94+488.787+1012.09+486C1012.53+484.958+1012.9+483.869+1013.44+482.875C1014.23+481.404+1015.23+479.974+1016.22+478.625C1017.41+476.999+1018.95+474.875+1020.94+474.312Z" opacity="1"/>
</g>
<g opacity="1">
<path d="M577.285+530.718C576.114+525.628+581.244+521.01+582.48+515.936C583.34+512.406+583.159+508.702+583.529+505.089C584.758+493.085+589.76+465.49+607.455+467.748C609.647+468.028+611.764+469.047+613.556+470.34C618.79+474.118+621.617+480.91+625.186+485.987C626.45+487.784+627.333+490.274+629.38+491.074C632.044+492.115+635.209+491.764+637.959+490.978C645.032+488.957+651.78+475.106+660.932+479.555C668.607+483.286+669.498+496.969+665.508+503.169C664.397+504.895+661.02+505.648+661.314+507.68C661.685+510.247+664.502+512.165+666.938+513.056C669.536+514.005+672.51+513.265+675.231+512.768C682.845+511.378+686.961+505.314+694.01+502.977C697.152+501.935+700.464+501.481+703.733+500.961C712.747+499.528+726.174+499.451+734.046+504.993C737.55+507.459+740.146+511.302+744.055+513.056C745.829+513.851+747.737+514.536+749.68+514.592C752.281+514.667+754.863+512.865+757.401+513.44C759.363+513.884+761.82+515.37+761.976+517.375C762.133+519.383+759.828+521.004+758.068+521.983C756.269+522.984+754.02+522.785+751.967+522.943C744.277+523.534+736.786+521.315+729.185+521.407C723.333+521.478+717.534+522.762+711.836+524.095C697.851+527.365+683.546+529.056+669.512+532.254C657.882+534.904+644.766+537.98+632.621+535.806C628.087+534.994+624.076+532.203+619.561+531.294C613.65+530.103+610.651+531.165+604.595+530.718C602.444+530.559+600.364+529.758+598.209+529.662C594.122+529.481+590.19+531.514+586.102+531.678C583.148+531.797+577.948+533.599+577.285+530.718Z" fill="#e7c684" opacity="1"/>
<path fill="#000000" d="M603.875+462.656C602.096+462.799+600.353+463.17+598.688+463.812C588.502+467.739+583.708+479.619+581.188+489.406C580.618+491.619+580.128+493.846+579.719+496.094C579.256+498.639+578.906+501.21+578.625+503.781C578.251+507.2+578.399+510.676+577.75+514.062C577.119+517.354+574.785+520.091+573.469+523.125C572.914+524.404+573.003+525.065+572.719+528.094C572.008+529.329+571.764+530.812+572.219+532.281C572.476+533.046+572.345+532.712+572.469+533.062C572.727+533.796+573.32+534.652+573.844+535.219C575.396+536.896+577.615+537.57+579.844+537.656C581.778+537.731+583.656+537.309+585.562+537.062C587.502+536.811+589.427+536.66+591.344+536.219C593.244+535.781+595.138+535.119+597.094+534.969C599.51+534.783+601.871+535.853+604.281+536C607.956+536.225+611.644+535.87+615.312+536.062C616.956+536.149+618.619+536.441+620.188+536.938C623.606+538.021+626.715+539.854+630.219+540.719C636.101+542.17+642.631+542.048+648.625+541.469C658.43+540.52+667.961+537.861+677.594+535.938C686.991+534.061+696.482+532.68+705.875+530.781C711.047+529.736+716.143+528.364+721.344+527.469C723.911+527.027+726.545+526.642+729.156+526.656C732.126+526.673+735.056+526.981+738+527.344C739.946+527.584+741.891+527.821+743.844+528C745.58+528.159+747.319+528.276+749.062+528.281C750.458+528.285+751.857+528.189+753.25+528.125C754.825+528.052+756.402+527.987+757.938+527.594C762.568+526.408+767.791+521.966+767.156+516.75C766.523+511.544+760.997+507.97+756+508.094C754.71+508.126+753.466+508.45+752.219+508.781C751.52+508.967+750.621+509.415+749.875+509.375C748.842+509.319+747.861+509.008+746.906+508.625C744.503+507.663+742.751+505.779+740.906+504.031C738.917+502.147+736.839+500.415+734.406+499.125C730.81+497.218+726.823+496.158+722.812+495.562C716.661+494.65+710.303+494.82+704.156+495.688C700.198+496.246+696.033+496.751+692.25+498.125C690.217+498.863+688.347+499.78+686.5+500.906C683.45+502.766+680.695+505.205+677.438+506.719C675.983+507.395+674.472+507.706+672.906+508C671.665+508.233+670.14+508.648+668.875+508.312C668.558+508.228+668.266+508.057+667.969+507.906C668.152+507.753+668.359+507.635+668.531+507.469C670.317+505.741+671.337+503.257+672+500.906C674.004+493.801+672.957+484.699+668.125+478.906C663.922+473.868+657.385+472.218+651.375+474.969C647.987+476.52+645.21+479.065+642.5+481.562C640.809+483.12+639.033+485.078+636.875+486C635.976+486.384+634.905+486.54+633.938+486.625C633.043+486.703+632.282+486.562+631.438+486.406C630.806+485.554+630.324+484.612+629.75+483.719C628.807+482.251+627.81+480.807+626.906+479.312C623.166+473.127+619.619+467.241+612.781+464.094C611.559+463.531+610.23+463.113+608.906+462.875C607.254+462.578+605.547+462.522+603.875+462.656ZM606.062+472.688C610.253+472.964+613.184+476.532+615.344+479.781C616.69+481.807+617.876+483.933+619.156+486C619.828+487.083+620.561+488.117+621.25+489.188C622.107+490.521+622.787+491.925+623.844+493.125C625.65+495.176+628.078+496.241+630.75+496.625C634.735+497.198+639.271+496.406+642.75+494.344C645.544+492.687+647.864+490.393+650.25+488.219C651.528+487.054+652.829+485.884+654.281+484.938C656.19+483.694+657.904+483.175+659.719+484.812C662.479+487.303+663.037+492.264+662.656+495.719C662.474+497.371+661.98+498.794+661.25+500.25C661.157+500.316+661.063+500.373+660.969+500.438C660.818+500.54+660.682+500.649+660.531+500.75C660.135+501.016+659.647+501.331+659.281+501.625C658.256+502.449+657.326+503.445+656.781+504.656C654.279+510.217+659.617+515.531+664.312+517.531C665.321+517.961+666.354+518.257+667.438+518.438C669.892+518.846+672.361+518.511+674.781+518.062C678.34+517.403+681.404+516.387+684.531+514.531C687.466+512.79+690.112+510.58+693.125+508.969C696.139+507.357+699.574+506.839+702.906+506.312C704.931+505.993+706.956+505.702+709+505.531C713.849+505.126+718.824+505.182+723.594+506.219C725.929+506.727+728.266+507.491+730.312+508.75C732.907+510.346+734.863+512.816+737.188+514.75C738.288+515.666+739.478+516.403+740.719+517.094C738.26+516.786+735.785+516.442+733.312+516.281C729.224+516.016+725.173+516.234+721.125+516.844C714.128+517.899+707.263+519.81+700.312+521.125C690.861+522.913+681.35+524.349+671.938+526.344C661.127+528.635+650.158+531.722+639+531.188C636.653+531.075+634.224+530.892+631.969+530.188C629.888+529.537+627.928+528.553+625.906+527.75C624.232+527.085+622.537+526.533+620.781+526.125C618.324+525.554+615.733+525.393+613.219+525.406C611.309+525.416+609.41+525.563+607.5+525.531C606.461+525.514+605.373+525.508+604.344+525.344C602.119+524.989+599.997+524.36+597.719+524.344C594.411+524.321+591.263+525.382+588.062+526.062C586.97+526.295+585.858+526.351+584.75+526.469C584.163+526.531+583.583+526.629+583+526.719C583.349+525.984+583.645+525.229+584.031+524.531C585.051+522.691+586.134+520.865+586.844+518.875C587.652+516.61+587.977+514.199+588.156+511.812C588.313+509.716+588.345+507.626+588.531+505.531C588.879+501.631+589.565+497.751+590.438+493.938C591.49+489.334+592.911+484.69+595.188+480.531C597.457+476.384+600.887+472.346+606.062+472.688Z" opacity="1"/>
</g>
<g opacity="1">
<path opacity="1" fill="#e7c684" d="M474.287+504.321C472.657+495.317+475.977+481.439+485.63+476.388C488.01+475.142+490.67+474.234+493.352+474.084C498.46+473.798+500.711+476.86+504.6+479.267C508.986+481.982+511.307+481.463+512.988+487.138C514.983+493.873+509.177+498.189+507.555+504.129C505.833+510.435+507.031+517.195+503.075+522.943C501.988+524.522+500.761+526.507+498.88+526.878C496.956+527.258+495.176+525.582+493.352+524.863C483.811+521.1+487.058+518.146+480.959+510.944C478.934+508.552+474.845+507.404+474.287+504.321Z"/>
<path opacity="1" fill="#000000" d="M496+469.156C491.681+468.608+487.241+469.879+483.344+471.875C474.938+476.181+482.096+472.797+471.344+499.969C469.58+501.163+468.618+503.3+469.125+505.5C469.678+506.263+469.521+506.125+469.906+506.688C470.01+506.879+470.123+507.044+470.25+507.219C472.598+510.757+472.058+510.816+473.938+512.188C474.867+512.866+476.156+513.435+476.906+514.344C477.873+515.515+478.733+516.746+479.438+518.094C480.336+519.813+481.013+521.615+482.125+523.219C483.83+525.677+486.244+527.401+488.906+528.688C489.776+529.108+490.688+529.438+491.562+529.844C493.479+530.734+495.131+531.922+497.312+532.156C498.993+532.336+500.647+532.038+502.156+531.281C504.144+530.285+505.592+528.568+506.844+526.781C509.539+522.935+510.741+519.103+511.344+514.438C511.762+511.199+511.731+507.665+512.906+504.562C513.728+502.393+515.101+500.413+516.188+498.375C517.671+495.594+518.693+492.56+518.562+489.375C518.405+485.533+516.765+481.297+513.844+478.719C511.925+477.025+509.478+476.276+507.344+474.938C504.957+473.441+502.831+471.525+500.25+470.344C498.869+469.712+497.44+469.339+496+469.156ZM494.594+479.156C495.929+479.306+497.042+480.137+498.094+480.906C498.99+481.562+499.863+482.249+500.781+482.875C502.206+483.846+503.708+484.671+505.25+485.438C505.798+485.71+506.754+486.009+507.156+486.531C507.692+487.227+507.976+488.186+508.156+489.031C508.585+491.039+507.321+493.034+506.375+494.688C505.854+495.598+505.317+496.517+504.812+497.438C503.231+500.324+502.255+503.293+501.75+506.531C501.16+510.32+501.265+514.407+499.781+518C499.293+519.182+498.53+520.187+497.75+521.188C496.97+520.762+496.187+520.311+495.375+519.969C493.941+519.365+492.237+518.785+491.156+517.594C490.104+516.434+489.531+514.563+488.812+513.188C487.659+510.979+486.246+508.815+484.531+507C483.621+506.037+482.552+505.254+481.469+504.5C480.739+503.992+480.012+503.497+479.375+502.875C479.349+502.782+479.281+502.715+479.25+502.625C479.126+498.069+478.897+498.204+479.156+496.188C480.024+489.436+483.201+482.53+489.906+480C491.364+479.45+493.02+478.979+494.594+479.156Z"/>
</g>
<g opacity="1">
<path fill="#ed8944" d="M758.68+516.244C749.767+505.035+750.255+489.101+759.582+476.827C761.492+474.315+765.306+469.825+768.863+468.953C770.59+468.529+772.413+469.238+774.191+469.212C784.093+469.067+793.896+471.208+802.378+464.453C811.821+456.931+813.467+443.754+823.604+437.021C825.387+435.837+827.482+434.641+829.619+434.771C833.904+435.032+838.118+439.293+841.306+441.608C846.531+445.401+848.388+445.489+851.876+450.953C854.692+455.364+855.981+460.784+859.439+464.712C865.067+471.108+871.025+468.597+878.344+469.818C883.169+470.623+888.101+473.671+892.352+475.702C894.911+476.925+897.82+477.544+900.086+479.25C905.643+483.436+905.384+491.337+905.929+497.249C906.426+502.64+908.51+509.045+905.242+514.21C900.426+521.821+890.049+520.157+882.727+522.085C880.899+522.566+879.335+523.859+877.485+524.248C871.12+525.588+864.333+523.611+857.892+524.421C849.63+525.461+843.875+528.553+835.291+527.104C828.626+525.979+823.204+523.16+816.127+523.556C810.47+523.873+808.616+526.02+802.464+525.114C798.348+524.507+794.751+521.561+790.605+521.22C786.417+520.875+782.26+522.462+778.058+522.431C771.372+522.382+762.743+521.353+758.68+516.244Z" opacity="1"/>
<path opacity="1" fill="#000000" d="M829.375+429.688C828.59+429.685+827.797+429.762+826.969+429.938C824.034+430.558+821.438+432.207+819.188+434.125C817.959+435.172+816.54+436.201+815.438+437.375C814.653+438.21+814.031+439.177+813.344+440.094C812.712+440.936+812.053+441.749+811.469+442.625C810.343+444.314+809.356+446.146+808.344+447.906C805.456+452.925+802.698+458.516+797.594+461.656C793.201+464.358+787.906+464.463+782.906+464.344C780.018+464.275+777.139+464.205+774.25+464.188C773.356+464.182+772.48+463.969+771.594+463.875C769.987+463.704+768.421+463.784+766.875+464.281C764.315+465.104+762.091+466.804+760.156+468.625C758.22+470.447+756.492+472.5+754.938+474.656C747.925+484.383+745.211+497.09+748.969+508.625C749.613+510.603+749.773+510.378+753.562+517.281C753.735+518.141+754.046+518.974+754.656+519.688C758.957+523.432+757.26+522.391+758.938+523.438C762.909+525.916+767.649+526.968+772.25+527.438C773.58+527.573+774.821+527.643+776.156+527.688C777.636+527.737+779.148+527.758+780.625+527.625C782.8+527.43+784.931+526.938+787.094+526.656C788.498+526.473+789.956+526.365+791.344+526.719C793.495+527.267+795.496+528.459+797.562+529.25C799.746+530.086+802.04+530.526+804.375+530.625C806.109+530.698+807.828+530.55+809.531+530.219C811.048+529.924+812.515+529.453+814.031+529.156C815.707+528.829+817.424+528.738+819.125+528.875C821.996+529.106+824.767+529.927+827.531+530.688C831.004+531.643+834.483+532.529+838.094+532.719C841.992+532.924+845.831+532.317+849.625+531.469C852.494+530.827+855.432+529.955+858.375+529.688C863.792+529.195+869.174+530.285+874.594+529.938C876.455+529.818+878.357+529.557+880.125+528.938C881.085+528.601+882.001+528.144+882.906+527.688C883.216+527.531+883.614+527.261+883.938+527.188C884.503+527.059+885.056+526.926+885.625+526.812C889.823+525.972+894.154+525.994+898.312+524.875C904.038+523.335+908.992+519.747+911.125+514.062C911.714+512.494+912.048+510.825+912.188+509.156C912.54+504.958+911.525+500.897+911.125+496.75C910.556+490.858+910.533+484.759+907.281+479.562C905.84+477.259+903.857+475.327+901.5+473.969C899.304+472.703+896.865+472.114+894.594+471.031C889.591+468.647+884.678+465.531+879.094+464.719C876.587+464.354+874.09+464.271+871.562+464.219C869.538+464.177+867.324+464.193+865.5+463.188C863.804+462.253+862.596+460.575+861.656+458.938C859.911+455.898+858.74+452.576+857+449.531C855.49+446.888+853.631+444.367+851.312+442.375C848.923+440.322+846.087+438.887+843.594+436.969C839.375+433.722+834.872+429.702+829.375+429.688ZM829.219+439.844C830.039+439.716+831.129+440.425+831.781+440.812C833.794+442.009+835.528+443.605+837.375+445.031C838.826+446.152+840.341+447.185+841.875+448.188C843.004+448.925+844.194+449.638+845.156+450.594C845.93+451.362+846.584+452.22+847.188+453.125C849.193+456.133+850.352+459.599+852.031+462.781C853.637+465.825+855.73+468.777+858.531+470.844C860.695+472.44+863.11+473.516+865.75+474.031C869.659+474.795+873.661+474.367+877.594+474.938C879.204+475.171+880.812+475.849+882.281+476.5C884.949+477.682+887.493+479.12+890.125+480.375C892.394+481.457+895.001+482+897.062+483.469C898.347+484.384+899.07+486.042+899.5+487.5C900.322+490.291+900.377+493.247+900.594+496.125C900.782+498.629+901.203+501.107+901.531+503.594C901.735+505.135+901.921+506.725+901.781+508.281C901.716+509.005+901.599+509.695+901.344+510.375C899.716+514.703+894.056+515.21+890.156+515.656C889.459+515.736+888.76+515.826+888.062+515.906C886.976+516.031+885.893+516.144+884.812+516.312C883.143+516.573+881.452+516.876+879.875+517.5C878.67+517.977+877.517+518.846+876.25+519.125C874.111+519.596+871.818+519.494+869.656+519.375C866.795+519.217+863.931+518.891+861.062+518.938C857.636+518.993+854.239+519.588+850.906+520.344C847.141+521.198+843.363+522.252+839.469+522.188C835.811+522.127+832.281+521.017+828.781+520.062C825.885+519.273+822.969+518.587+819.969+518.344C817.305+518.128+814.623+518.237+812+518.75C809.248+519.289+806.651+520.266+803.812+519.938C801.62+519.684+799.663+518.633+797.656+517.781C795.577+516.899+793.446+516.176+791.188+515.938C787.272+515.524+783.544+516.718+779.688+517.062C777.582+517.25+775.409+517.089+773.312+516.875C770.681+516.607+773.324+516.875+762.719+512.781C762.511+512.538+762.239+512.415+762+512.219C761.698+511.81+761.254+511.233+760.938+510.719C759.936+509.094+759.122+507.346+758.531+505.531C755.855+497.305+757.816+488.258+762.625+481.219C764.077+479.093+765.766+477.024+767.719+475.344C767.923+475.168+768.128+475.007+768.344+474.844C768.562+474.679+768.805+474.498+769.031+474.344C769.265+474.184+769.801+473.836+770.031+473.844C770.992+473.875+771.917+474.109+772.875+474.188C775.292+474.385+777.762+474.264+780.188+474.344C788.703+474.623+796.946+474.478+804.219+469.375C808.814+466.15+812.125+461.603+814.938+456.812C816.163+454.726+817.331+452.615+818.562+450.531C819.213+449.43+819.823+448.363+820.594+447.344C821.172+446.579+821.746+445.805+822.312+445.031C822.485+444.795+822.611+444.525+822.812+444.312C823.024+444.089+823.326+443.947+823.562+443.75C824.316+443.123+825.038+442.483+825.781+441.844C826.737+441.022+827.918+440.046+829.219+439.844Z"/>
</g>
<g opacity="1">
<path fill="#ed5344" opacity="1" d="M909.152+496.254C910.298+489.503+914.094+483.457+917.187+477.346C919.835+472.114+922.508+465.651+927.929+463.414C935.971+460.095+946.433+466.72+944.428+475.875C943.203+481.47+940.025+480.57+937.553+485.394C935.623+489.163+933.36+498.94+934.374+503.22C935.802+509.253+939.947+512.984+941.163+519.922C941.527+522+943.267+524.288+942.28+526.152C941.427+527.763+938.726+527.022+937.038+527.71C932.351+529.619+930.954+532.368+925.694+530.479C923.544+529.707+922.173+527.229+919.937+526.758C918.141+526.38+916.417+527.832+914.609+528.142C911.213+528.726+907.703+527.967+904.297+527.45C902.391+527.161+900.33+527.641+898.539+526.931C896.691+526.199+893.45+525.251+893.812+523.297C894.212+521.139+897.923+521.667+899.742+520.441C901.174+519.475+902.114+517.917+903.437+516.806C905.215+515.315+907.62+514.501+909.023+512.653C912.216+508.445+908.389+500.746+909.152+496.254Z"/>
<path d="M934.094+457.625C930.018+457.253+925.8+458.236+922.375+460.844C917.681+464.419+915.28+469.95+912.688+475.062C910.539+479.301+908.133+483.417+906.375+487.844C905.939+488.941+905.513+490.768+904.812+493.312C904.354+493.984+903.985+494.732+903.875+495.594C904.749+505.403+904.259+502.332+904.75+505.406C904.896+506.317+905.013+507.232+905+508.156C904.996+508.471+905.005+508.785+904.938+509.094C904.917+509.188+904.821+509.374+904.844+509.375C904.056+510.214+902.996+510.697+902.031+511.312C900.968+511.991+899.961+512.735+899.062+513.625C898.491+514.191+897.98+514.814+897.438+515.406C897.335+515.518+897.017+515.769+896.906+515.938C894.577+516.492+892.214+516.912+890.469+518.719C888.336+520.926+887.841+524.409+889.438+527.062C890.821+529.362+893.21+530.544+895.625+531.469C896.525+531.813+897.426+532.181+898.375+532.375C900.036+532.714+901.653+532.505+903.312+532.656C905.523+532.857+907.716+533.401+909.938+533.562C912.346+533.738+914.806+533.644+917.125+532.906C917.546+532.772+917.965+532.602+918.375+532.438C918.599+532.348+918.809+532.251+919.031+532.156C919.307+532.391+919.6+532.639+919.875+532.875C920.793+533.661+921.726+534.395+922.812+534.938C925.707+536.382+929.216+536.751+932.312+535.812C934.57+535.129+936.469+533.684+938.594+532.719C939.302+532.397+941.161+532.46+942.281+532.156C944.753+531.487+946.761+529.66+947.469+527.156C948.264+524.339+947.278+521.947+946.375+519.344C945.896+517.962+945.738+516.454+945.281+515.062C944.569+512.893+943.499+510.857+942.438+508.844C941.331+506.744+939.546+504.026+939.312+501.562C939.019+498.467+939.798+495.049+940.594+492.062C941.041+490.384+941.516+488.572+942.469+487.094C943.063+486.172+943.927+485.518+944.75+484.812C945.571+484.109+946.353+483.338+947+482.469C949.64+478.926+950.363+473.946+949.219+469.719C947.303+462.646+940.886+458.244+934.094+457.625ZM930.875+467.781C934.235+467.044+938.298+468.781+939.375+472.125C939.531+472.609+939.598+473.117+939.594+473.625C939.568+476.62+937.874+477.074+935.906+479.031C934.945+479.987+934.117+481.11+933.438+482.281C932.311+484.224+931.563+486.384+930.938+488.531C930.135+491.285+929.551+494.119+929.219+496.969C928.933+499.422+928.795+501.948+929.344+504.375C929.984+507.207+931.246+509.822+932.594+512.375C933.6+514.28+934.744+516.219+935.406+518.281C935.85+519.665+936.122+521.107+936.531+522.5C935.338+522.792+934.176+523.232+933.031+523.812C932.209+524.23+931.429+524.675+930.625+525.125C930.019+525.464+929.423+525.846+928.719+525.875C927.379+525.931+926.166+524.316+925.062+523.531C923.951+522.741+922.72+522.083+921.406+521.719C919.586+521.214+917.72+521.449+915.969+522.062C914.816+522.466+913.857+523.004+912.625+523.062C910.182+523.179+907.786+522.74+905.375+522.406C905.869+521.866+906.346+521.3+906.906+520.812C907.592+520.216+908.46+519.802+909.219+519.312C910.687+518.365+912.015+517.369+913.125+516C916.719+511.566+915.574+505.81+914.719+500.688C914.587+499.899+914.709+500.702+914.406+496.938C914.44+496.67+914.381+496.418+914.375+496.156C914.74+494.654+914.841+493.986+915.188+493.031C915.905+491.052+916.747+489.133+917.688+487.25C919.196+484.229+920.84+481.274+922.344+478.25C923.895+475.13+925.37+471.864+927.875+469.375C928.704+468.551+929.755+468.027+930.875+467.781Z" fill="#000000" opacity="1"/>
</g>
<g opacity="1">
<path opacity="1" fill="url(#RadialGradient)" d="M1087.72+611.822C1087.2+611.526+1086.1+611.135+1086.39+610.61C1087.74+608.168+1089.94+606.291+1091.89+604.293C1095.57+600.524+1098.05+598.946+1103.24+597.111C1117.95+591.899+1132.87+590.998+1148.35+590.102C1157.02+589.599+1165.51+588.156+1174.22+587.938C1183.21+587.713+1191.97+588.81+1200.94+589.15C1214.1+589.647+1227.22+588.145+1240.39+589.063C1260.19+590.445+1279.82+594.109+1299.68+595.121C1310.77+595.685+1321.85+595.341+1332.94+595.467C1340.52+595.552+1352.25+595.101+1359.49+597.284C1363.49+598.488+1367.07+600.796+1370.92+602.39C1372.78+603.159+1375.14+603.075+1376.59+604.466C1380.95+608.632+1380.76+618.416+1380.55+623.677C1380.06+635.834+1373.61+648.998+1361.13+652.493C1356.92+653.672+1352.47+653.733+1348.15+654.397C1334.65+656.472+1321.01+657.237+1307.42+658.378C1299.43+659.048+1291.6+661.092+1283.61+661.666C1277.78+662.086+1271.89+661.672+1266.08+662.358C1260.76+662.987+1255.53+664.38+1250.18+664.695C1243.36+665.096+1237.42+662.288+1230.68+661.753C1218.43+660.779+1205.86+662.686+1193.64+663.224C1184.91+663.608+1176.16+662.999+1167.43+663.137C1163.53+663.199+1159.63+663.794+1155.74+663.57C1147.34+663.086+1138.91+659.115+1130.48+658.637C1125.01+658.328+1119.48+659.295+1114.06+658.551C1107.51+657.651+1100.79+656.169+1094.3+654.83C1089.98+653.939+1087.04+653.744+1083.56+650.416C1076.17+643.358+1083.88+631.232+1085.62+623.591C1086.05+621.717+1085.84+619.719+1086.39+617.879C1086.99+615.899+1089.52+612.843+1087.72+611.822Z"/>
<path opacity="1" d="M1176.44+582.875C1168.32+582.902+1160.32+584.076+1152.25+584.781C1143.77+585.523+1135.24+585.731+1126.78+586.75C1119.57+587.619+1112.39+588.962+1105.44+591.094C1102.01+592.145+1098.54+593.282+1095.41+595.062C1092.95+596.46+1090.77+598.288+1088.78+600.281C1086.78+602.281+1084.67+604.207+1083.03+606.531C1082.18+607.74+1081.4+609.09+1081.34+610.594C1081.29+611.976+1081.76+612.895+1082.41+613.781C1082.14+614.301+1081.88+614.803+1081.66+615.344C1080.74+617.611+1080.89+619.861+1080.5+622.188C1080.28+623.473+1079.78+624.745+1079.34+625.969C1076.7+633.452+1072.93+642.057+1076.69+649.844C1077.21+650.927+1077.86+651.948+1078.62+652.875C1079.65+654.119+1080.87+655.222+1082.19+656.156C1083.64+657.189+1085.22+657.99+1086.91+658.562C1088.96+659.261+1091.13+659.598+1093.25+660.031C1095.44+660.479+1097.59+660.929+1099.78+661.375C1105.24+662.489+1110.93+663.8+1116.5+664.094C1122.3+664.399+1128.07+663.401+1133.84+664.344C1140.72+665.466+1147.24+668.133+1154.22+668.75C1159.35+669.203+1164.49+668.428+1169.62+668.406C1177.71+668.373+1185.8+668.865+1193.88+668.5C1203.11+668.082+1212.29+666.961+1221.53+666.781C1225.38+666.706+1229.32+666.743+1233.12+667.375C1238.59+668.281+1243.83+670.133+1249.44+670C1255.26+669.861+1260.9+668.191+1266.66+667.562C1272.44+666.932+1278.24+667.353+1284.03+666.875C1290.15+666.37+1296.16+665.183+1302.22+664.281C1305.78+663.752+1309.35+663.448+1312.94+663.156C1324.95+662.18+1336.93+661.232+1348.88+659.531C1353+658.943+1357.22+658.783+1361.28+657.812C1367.27+656.385+1372.52+653.097+1376.53+648.438C1378.1+646.614+1379.49+644.607+1380.66+642.5C1382.09+639.893+1383.2+637.108+1384.03+634.25C1385.3+629.848+1385.73+625.345+1385.78+620.781C1385.85+614.506+1385.37+606.577+1381+601.656C1380.19+600.748+1379.45+600.064+1378.38+599.438C1376.68+598.449+1374.85+598.26+1373.03+597.688C1372.11+597.396+1371.21+596.893+1370.34+596.469C1366.93+594.802+1363.54+593.024+1359.84+592.062C1353.94+590.53+1347.69+590.426+1341.62+590.375C1335.49+590.324+1329.35+590.326+1323.22+590.344C1312.19+590.375+1301.22+590.315+1290.22+589.375C1279.13+588.427+1268.08+586.839+1257.03+585.562C1251.6+584.935+1246.15+584.309+1240.69+584C1236.19+583.745+1231.66+583.658+1227.16+583.719C1219.54+583.821+1211.93+584.306+1204.31+584.188C1195.01+584.043+1185.74+582.845+1176.44+582.875ZM1178.59+592.969C1187.12+593.121+1195.63+594.143+1204.16+594.281C1216.15+594.475+1228.1+593.441+1240.09+594.125C1245.77+594.449+1251.45+595.125+1257.09+595.781C1267.83+597.029+1278.57+598.563+1289.34+599.5C1294.58+599.955+1299.84+600.291+1305.09+600.438C1312.53+600.645+1319.94+600.512+1327.38+600.531C1333.24+600.546+1339.13+600.52+1345+600.688C1349.09+600.804+1353.31+600.965+1357.28+602C1361.41+603.073+1365.02+605.509+1368.94+607.125C1369.85+607.502+1370.79+607.748+1371.75+607.969C1372.16+608.064+1372.85+608.121+1373.22+608.312C1373.34+608.378+1373.77+609.206+1373.84+609.344C1374.29+610.221+1374.56+611.167+1374.78+612.125C1375.61+615.781+1375.6+619.681+1375.41+623.406C1375.24+626.563+1374.7+629.654+1373.69+632.656C1372.85+635.137+1371.74+637.53+1370.25+639.688C1369.32+641.037+1368.24+642.302+1367.03+643.406C1365.1+645.163+1362.84+646.523+1360.34+647.312C1356.91+648.4+1353.23+648.51+1349.69+648.938C1344.48+649.565+1339.32+650.374+1334.09+650.906C1327.91+651.536+1321.69+652.023+1315.5+652.5C1311.95+652.774+1308.39+652.99+1304.84+653.375C1297.58+654.164+1290.47+655.836+1283.19+656.438C1278.35+656.837+1273.46+656.52+1268.62+656.844C1264.35+657.13+1260.16+657.976+1255.94+658.688C1253.3+659.132+1250.59+659.567+1247.91+659.438C1242.85+659.194+1238+657.395+1233+656.75C1228.61+656.184+1224.17+656.133+1219.75+656.25C1211.94+656.457+1204.17+657.322+1196.38+657.781C1188.18+658.264+1180.01+657.888+1171.81+657.844C1169.61+657.832+1167.41+657.832+1165.22+657.938C1162.71+658.058+1160.2+658.346+1157.69+658.344C1153.16+658.34+1148.81+657.1+1144.47+655.969C1139.99+654.803+1135.47+653.676+1130.84+653.344C1126.24+653.014+1121.66+653.744+1117.06+653.5C1114.7+653.375+1112.36+652.965+1110.03+652.562C1106.22+651.902+1102.41+651.099+1098.62+650.312C1096.84+649.941+1095.07+649.573+1093.28+649.219C1091.77+648.92+1090.18+648.652+1088.84+647.844C1088.23+647.476+1087.71+647.015+1087.19+646.531C1085.28+644.759+1085.58+641.823+1086.06+639.531C1086.62+636.899+1087.58+634.363+1088.5+631.844C1088.93+630.68+1089.36+629.518+1089.75+628.344C1090.43+626.311+1091+624.264+1091.19+622.125C1091.25+621.347+1091.23+620.549+1091.38+619.781C1091.4+619.651+1091.43+619.534+1091.47+619.406C1091.48+619.37+1091.49+619.366+1091.5+619.312C1091.51+619.29+1091.53+619.273+1091.53+619.25C1091.59+619.11+1091.65+619.016+1091.72+618.875C1091.86+618.59+1092.01+618.323+1092.16+618.031C1092.55+617.239+1092.95+616.442+1093.22+615.594C1093.77+613.851+1093.53+614.159+1092.66+612.5C1092.74+611.912+1092.69+611.319+1092.56+610.75C1093.78+609.473+1095.05+608.233+1096.31+607C1097.36+605.979+1098.45+605.003+1099.69+604.219C1102.82+602.235+1106.6+601.19+1110.12+600.188C1118.94+597.679+1128.1+596.564+1137.22+595.875C1141.77+595.531+1146.32+595.304+1150.88+594.969C1155.59+594.622+1160.3+594.065+1165+593.594C1169.52+593.14+1174.05+592.888+1178.59+592.969Z" fill="#000000"/>
</g>
<g opacity="1">
<path d="M1338.18+619.523C1333.53+618.79+1328.78+619.143+1324.09+618.745C1319.89+618.388+1314.56+617.363+1311.54+620.302C1305.46+626.225+1317.82+635.741+1322.8+636.744C1328.89+637.971+1333.79+636.369+1339.38+634.321C1341.04+633.716+1343.17+633.877+1344.37+632.59C1345.59+631.274+1345.64+629.186+1345.83+627.398C1346.02+625.645+1346.71+623.384+1345.49+622.119C1343.69+620.266+1340.73+619.926+1338.18+619.523Z" opacity="1" fill="url(#RadialGradient_2)"/>
<path d="M1316.28+613.344C1313.58+613.515+1310.98+614.191+1308.72+616.031C1303.84+620.005+1303.89+626.085+1307.09+631.062C1309.15+634.264+1312.13+636.888+1315.31+638.938C1316.97+640.007+1318.73+640.983+1320.62+641.562C1322.45+642.12+1324.44+642.316+1326.34+642.375C1329.93+642.486+1333.43+641.799+1336.84+640.75C1338.33+640.295+1339.79+639.659+1341.28+639.25C1342.4+638.942+1343.55+638.89+1344.66+638.469C1346.4+637.802+1347.8+636.827+1348.94+635.344C1350.67+633.086+1350.75+630.338+1351.12+627.656C1351.34+626.102+1351.62+624.577+1351.41+623C1351.24+621.771+1350.87+620.572+1350.19+619.531C1348.35+616.74+1350.18+619.54+1339+614.281C1338.34+614.179+1337.68+614.243+1337.06+614.375C1336.05+614.261+1334.87+614.116+1333.75+614.062C1330.66+613.917+1327.55+613.965+1324.47+613.719C1321.79+613.505+1318.99+613.172+1316.28+613.344ZM1318.41+623.344C1319.79+623.371+1321.16+623.526+1322.53+623.656C1325.17+623.907+1324.72+623.791+1336.47+624.438C1336.77+624.544+1337.05+624.73+1337.38+624.781C1340.23+625.276+1339.28+625.027+1340.22+625.25C1340.4+625.292+1340.57+625.385+1340.75+625.438C1340.64+626.219+1340.54+626.995+1340.47+627.781C1340.44+628.072+1340.41+628.366+1340.38+628.656C1340.3+628.675+1340.18+628.682+1340.16+628.688C1339.99+628.721+1339.83+628.777+1339.66+628.812C1338.04+629.147+1336.53+629.778+1334.97+630.312C1331.93+631.353+1328.77+632.162+1325.53+631.875C1324.91+631.82+1324.26+631.769+1323.66+631.594C1321.86+631.068+1320.15+629.853+1318.72+628.688C1318.02+628.121+1317.4+627.526+1316.78+626.875C1316.38+626.449+1316.01+625.988+1315.69+625.5C1314.82+624.191+1314.53+623.813+1316.19+623.469C1316.38+623.428+1316.58+623.395+1316.78+623.375C1317.29+623.325+1317.9+623.334+1318.41+623.344Z" fill="#000000" opacity="1"/>
</g>
</g>
</svg>
